<svg  viewBox="0 0 500 500" fill="none" xmlns="http://www.w3.org/2000/svg">
<path d="M264.5 463L254.7 313.9H255L266.1 462.9C265.6 462.9 265 463 264.5 463ZM234 462.9L232.6 462.8L244.7 313.9H245.2L234 462.9ZM296.8 458.4L263.8 312.6L264.5 312.4L298 458.1L296.8 458.4ZM202.1 458.2L200.7 457.9L235 312.4L235.5 312.5L202.1 458.2ZM327.6 449.3L273.3 309.9L273.7 309.7L329.1 448.7C328.5 448.9 328.1 449.1 327.6 449.3ZM171.2 448.8L169.8 448.3L225.8 309.5L226.3 309.7L171.2 448.8ZM356.8 435.5L281.8 305.8L282.3 305.5L358 434.8L356.8 435.5ZM142 434.9C141.6 434.6 141.1 434.4 140.7 434.1L217.3 305.3L217.7 305.5L142 434.9ZM383.4 417.9L290 300.4L290.3 300.2L384.6 416.9C384.3 417.2 383.9 417.5 383.4 417.9ZM115.5 417C115 416.6 114.6 416.3 114.1 415.9L209.4 300L209.6 300.1L115.5 417ZM407.3 396.3L297.2 294L297.5 293.6L408.3 395.2L407.3 396.3ZM91.8 395.3L90.9 394.3L202.1 293.2L202.5 293.6L91.8 395.3ZM427.5 371.6L303.4 286.3L303.6 286L428.4 370.2C428.1 370.7 427.8 371.2 427.5 371.6ZM71.7 370.5C71.4 370.1 71.1 369.6 70.8 369.2L196.2 285.8L196.4 286.1L71.7 370.5ZM444 343.9L308.2 278.3L308.5 277.7L444.5 342.8L444 343.9ZM55.5 342.8C55.3 342.3 55 341.9 54.8 341.4L191.4 277.4L191.6 277.8L55.5 342.8ZM455.9 314.4L311.8 269.3L311.9 269L456.3 312.9C456.2 313.4 456.1 313.9 455.9 314.4ZM43.7 313.1C43.5 312.6 43.4 312.1 43.3 311.7L188 268.6L188.1 269L43.7 313.1ZM463.3 283.1L314 260.2L314.1 259.7L463.6 281.8L463.3 283.1ZM36.5 282C36.4 281.5 36.3 281 36.3 280.5L185.9 259.3L186 259.7L36.5 282ZM465.9 251.6L314.8 250.3V249.7H465.9V250C465.9 250.5 465.9 251.1 465.9 251.6ZM185.2 250.1H34.1V248.7L185.2 249.5V250.1ZM314.1 240.6V240.3L463.5 217.8C463.6 218.3 463.7 218.9 463.7 219.4L314.1 240.6ZM185.9 240.4L36.4 218.5C36.5 218 36.6 217.5 36.6 217L185.9 240V240.4ZM312.1 231.6L311.9 230.9L456.3 186.8L456.7 188L312.1 231.6ZM188 231.2L43.5 187.3L43.9 185.9L188.1 230.7L188 231.2ZM308.6 222.6L308.3 222.1L444.3 157L444.9 158.2L308.6 222.6ZM191.5 222.3L55.4 157.5L56 156.3L191.8 221.9L191.5 222.3ZM303.9 214.4L303.5 213.8L428.2 129.4L428.9 130.5L303.9 214.4ZM196.4 214L71.5 129.9C71.8 129.5 72.1 129.1 72.4 128.6L196.7 213.6L196.4 214ZM297.6 206.5L297.4 206.3L408 104.5C408.4 104.9 408.8 105.3 409.2 105.7L297.6 206.5ZM202.4 206.4L91.5 105C91.9 104.6 92.2 104.2 92.6 103.9L202.7 206.2L202.4 206.4ZM290.6 200L290.3 199.7L384.4 82.8C384.8 83.1 385.2 83.4 385.6 83.8L290.6 200ZM209.6 199.9L115.1 83.3C115.5 83 115.9 82.6 116.4 82.3L209.9 199.7L209.6 199.9ZM282.7 194.6L282.3 194.3L357.8 64.9L359.1 65.6L282.7 194.6ZM217.6 194.5L141.7 65.2C142.1 64.9 142.6 64.7 143 64.4L218 194.2L217.6 194.5ZM274 190.4L273.6 190.2L328.7 51.1C329.2 51.3 329.7 51.5 330.2 51.7L274 190.4ZM226.3 190.3L170.8 51.3C171.3 51.1 171.8 50.9 172.3 50.7L226.7 190.1L226.3 190.3ZM264.8 187.6L264.4 187.5L297.6 41.7C298.1 41.8 298.6 41.9 299.2 42.1L264.8 187.6ZM235.4 187.5L201.7 41.9C202.2 41.8 202.8 41.7 203.3 41.5L235.8 187.4L235.4 187.5ZM255.2 186.1H254.8L265.7 37.1C266.2 37.1 266.7 37.2 267.3 37.2L255.2 186.1ZM245 186.1L233.6 37.1C234.1 37.1 234.6 37 235.2 37L245.4 186.1H245Z" fill="#F0F0F0"/>
<path d="M443.9 330.2H263.2C260 330.2 257.3 327.6 257.3 324.3V61.1C257.3 57.9 259.9 55.2 263.2 55.2H443.9C447.1 55.2 449.8 57.8 449.8 61.1V324.4C449.8 327.6 447.2 330.2 443.9 330.2ZM263.2 55.5C260.1 55.5 257.6 58 257.6 61.1V324.4C257.6 327.5 260.1 330 263.2 330H443.9C447 330 449.5 327.5 449.5 324.4V61.1C449.5 58 447 55.5 443.9 55.5H263.2Z" fill="#E0E0E0"/>
<path d="M235.5 330.2H54.7001C51.5001 330.2 48.8 327.6 48.8 324.3V61.1C48.8 57.9 51.4001 55.2 54.7001 55.2H235.4C238.6 55.2 241.3 57.8 241.3 61.1V324.4C241.4 327.6 238.7 330.2 235.5 330.2ZM54.7001 55.5C51.6001 55.5 49.1 58 49.1 61.1V324.4C49.1 327.5 51.6001 330 54.7001 330H235.4C238.5 330 241 327.5 241 324.4V61.1C241 58 238.5 55.5 235.4 55.5H54.7001Z" fill="#E0E0E0"/>
<path d="M500 391.3H0V391.6H500V391.3Z" fill="#E0E0E0"/>
<path d="M67.8 405.5H51.7V405.8H67.8V405.5Z" fill="#E0E0E0"/>
<path d="M223.9 402.8H170.4V403.1H223.9V402.8Z" fill="#E0E0E0"/>
<path d="M104.9 414.8H68.7V415.1H104.9V414.8Z" fill="#E0E0E0"/>
<path d="M421.6 402.7H378.4V403H421.6V402.7Z" fill="#E0E0E0"/>
<path d="M436.8 402.7H430.5V403H436.8V402.7Z" fill="#E0E0E0"/>
<path d="M370.1 408.9H316.2V409.2H370.1V408.9Z" fill="#E0E0E0"/>
<path d="M43.2 218.5L92.9 228.4L85.5999 217.2L113 215.8L70.4 208.8L77.4 218.2L43.2 218.5Z" fill="#E0E0E0"/>
<path d="M83.3 170.3L106.1 198.5L107.2 189L122.9 200.8L102.7 177.4L102.3 185.8L83.3 170.3Z" fill="#E0E0E0"/>
<path d="M442.2 243.6L393.7 240.5L402.1 250.3L376.2 255.1L417.6 256.4L409.7 248.3L442.2 243.6Z" fill="#E0E0E0"/>
<path d="M418.9 299.2L396 274.1L395.5 283.1L380.1 272.9L400.4 293.7L400.3 285.8L418.9 299.2Z" fill="#E0E0E0"/>
<path d="M398.6 450.2C398.6 459.7 332.1 467.4 250 467.4C167.9 467.4 101.4 459.7 101.4 450.2C101.4 440.7 167.9 433 250 433C332.1 433 398.6 440.7 398.6 450.2Z" fill="#F5F5F5"/>
<path d="M305.3 34L270 87.2L286.6 84L275.1 116.6L303.6 70.3L289.3 74L305.3 34Z" fill="#407BFF"/>
<path opacity="0.8" d="M305.3 34L270 87.2L286.6 84L275.1 116.6L303.6 70.3L289.3 74L305.3 34Z" fill="white"/>
<path d="M233.6 49.9L242 100.1L249.9 89.2L260.9 114.4L252.4 71.9L246 81.9L233.6 49.9Z" fill="#407BFF"/>
<path opacity="0.8" d="M233.6 49.9L242 100.1L249.9 89.2L260.9 114.4L252.4 71.9L246 81.9L233.6 49.9Z" fill="white"/>
<path d="M338.8 82.2L303.3 101.7L313.5 104.8L297.5 119.7L327.2 102.1L318 100L338.8 82.2Z" fill="#407BFF"/>
<path opacity="0.8" d="M338.8 82.2L303.3 101.7L313.5 104.8L297.5 119.7L327.2 102.1L318 100L338.8 82.2Z" fill="white"/>
<path d="M405.1 179.2C411.1 192.1 408.8 208.5 399.5 219.3" stroke="#263238" stroke-miterlimit="10" stroke-linecap="round" stroke-linejoin="round"/>
<path d="M127.7 220.3C112.4 248.6 109.7 283.4 120.5 313.7" stroke="#263238" stroke-miterlimit="10" stroke-linecap="round" stroke-linejoin="round"/>
<path d="M284.7 123.2C286 128 285.2 133.3 282.6 137.6" stroke="#263238" stroke-miterlimit="10" stroke-linecap="round" stroke-linejoin="round"/>
<path d="M109 248.6C106.8 257.7 105.7 267 105.8 276.3" stroke="#263238" stroke-miterlimit="10" stroke-linecap="round" stroke-linejoin="round"/>
<path d="M156.7 357.2C156.7 357.2 134.9 388.6 142.6 391C150.3 393.4 174.8 371 174.8 371L156.7 357.2Z" fill="#407BFF"/>
<path opacity="0.3" d="M152.3 364C152.3 364 160.5 376.1 166.8 377.9L174.9 371L156.8 357.2L152.3 364Z" fill="black"/>
<path d="M305.5 378C305.5 378 317 414.5 308.9 414.5C300.8 414.5 284 385.8 284 385.8L305.5 378Z" fill="#407BFF"/>
<path opacity="0.3" d="M307.8 385.9C307.8 385.9 296.4 395 289.8 394.8L284.1 385.9L305.5 378.1L307.8 385.9Z" fill="black"/>
<path d="M198.3 170.9L192.8 173.2L165.4 108.8C164.8 107.3 165.5 105.5 167 104.9C168.5 104.3 170.3 105 170.9 106.5L198.3 170.9Z" fill="#263238"/>
<path opacity="0.3" d="M198.3 170.9L192.8 173.2L165.4 108.8C164.8 107.3 165.5 105.5 167 104.9C168.5 104.3 170.3 105 170.9 106.5L198.3 170.9Z" fill="white"/>
<path d="M134.4 183.3C134.4 183.3 116.6 139 151.5 121C183.6 104.4 190.3 104.2 190.3 104.2C190.3 104.2 232.9 90 246.5 133L134.4 183.3Z" fill="#407BFF"/>
<path opacity="0.3" d="M187.1 159.7L188 161.8L193.3 159.1L192.5 157.2L187.1 159.7Z" fill="black"/>
<g opacity="0.3">
<path d="M167.1 113.3C152.8 119.7 145.6 127.3 141.3 138C137 148.6 140.7 168 144.9 178.7L162.9 170.6C162.9 170.6 147.3 152.6 152.2 137.2C157.1 121.8 167.1 113.3 167.1 113.3Z" fill="white"/>
</g>
<path d="M331.4 198.6L327.1 194.5L375.1 143.7C376.2 142.5 378.1 142.5 379.3 143.6C380.5 144.7 380.5 146.6 379.4 147.8L331.4 198.6Z" fill="#263238"/>
<path opacity="0.3" d="M331.4 198.6L327.1 194.5L375.1 143.7C376.2 142.5 378.1 142.5 379.3 143.6C380.5 144.7 380.5 146.6 379.4 147.8L331.4 198.6Z" fill="white"/>
<path d="M294.4 145C294.4 145 327.9 111 358.3 135.7C386.3 158.5 389.2 164.6 389.2 164.6C389.2 164.6 419.3 198 385.3 227.6L294.4 145Z" fill="#407BFF"/>
<path opacity="0.3" d="M337.2 183.8L335.6 185.5L340.2 189.3L341.6 187.8L337.2 183.8Z" fill="black"/>
<g opacity="0.3">
<path d="M371.7 146.9C360.1 136.3 350.2 132.8 338.8 133.1C327.3 133.4 311.1 144.6 302.9 152.7L317.5 166C317.5 166 327.8 144.5 343.8 142.9C359.9 141.2 371.7 146.9 371.7 146.9Z" fill="white"/>
</g>
<path d="M279.8 128.5L261.3 125.7L260.2 132.9L265.1 133.6L262 154L270.7 155.3L273.8 134.9L278.7 135.7L279.8 128.5Z" fill="#263238"/>
<path opacity="0.3" d="M279.8 128.5L261.3 125.7L260.2 132.9L265.1 133.6L262 154L270.7 155.3L273.8 134.9L278.7 135.7L279.8 128.5Z" fill="white"/>
<path opacity="0.3" d="M273.699 134.969L265.098 133.661L264.752 135.935L273.353 137.242L273.699 134.969Z" fill="black"/>
<path d="M332.521 361.829C380.516 313.834 380.516 236.019 332.521 188.024C284.527 140.029 206.711 140.029 158.716 188.024C110.721 236.019 110.721 313.834 158.716 361.829C206.711 409.824 284.527 409.824 332.521 361.829Z" fill="#407BFF"/>
<path opacity="0.8" d="M322.718 352C365.128 309.589 365.128 240.828 322.718 198.418C280.307 156.007 211.546 156.007 169.135 198.418C126.725 240.828 126.725 309.589 169.135 352C211.546 394.41 280.307 394.41 322.718 352Z" fill="white"/>
<g opacity="0.3">
<path d="M165.4 348.1C175.5 359.1 187.7 368 201.5 374.1C211.2 359 224.2 346.1 237.8 334.2C254.8 319.4 272.9 305.8 288.4 289.5C291.7 286 294.9 282.4 296.7 278C298.5 273.6 298.8 268.3 296.4 264.2C293.1 258.7 286.1 257 279.8 255.8C271.8 254.2 263.9 252.7 255.9 251.1C250.4 250 243.7 247.6 243.4 242C243.1 237.3 247.8 234 251.8 231.7C274.2 219 297.1 207.2 320.4 196.1C318 193.8 315.5 191.6 312.9 189.6L301.4 181.6C297.3 179.1 293 176.9 288.6 175C267.8 190.6 249.2 209.2 234.4 230.6C230.8 235.8 227.4 241.3 226.2 247.6C225 253.8 226.5 260.9 231.4 264.9C235.7 268.4 241.5 268.9 246.9 270.2C252.3 271.5 258.1 274.2 259.5 279.6C260.8 284.5 257.8 289.5 254.6 293.5C232.2 320.5 194.4 328.5 165.4 348.1Z" fill="white"/>
</g>
<path opacity="0.3" d="M242.5 274.4L207.7 287.9L176.8 308.3L214 296.3L242.5 274.4Z" fill="black"/>
<path d="M247.5 273L205.9 284.9L175 305.3L212.2 293.2L247.5 273Z" fill="#263238"/>
<path opacity="0.3" d="M247.3 277.5L267 248.1L277.6 219.4L257.8 244.5L247.3 277.5Z" fill="black"/>
<path d="M245.6 275.2L265.4 245.9L275.9 217.2L256.1 242.2L245.6 275.2Z" fill="#263238"/>
<path d="M255.3 176.6L253.3 189.7L251.4 189.4L253.1 177.9L250.1 177.5L250.3 175.9L255.3 176.6Z" fill="#263238"/>
<path d="M265.6 189.9L265.4 191.5L256 190.1L256.2 188.8L262.3 184.5C263.9 183.4 264.3 182.6 264.4 181.8C264.6 180.5 263.8 179.5 261.9 179.2C260.5 179 259.3 179.3 258.3 180.1L257.2 178.8C258.4 177.7 260.2 177.2 262.3 177.5C265 177.9 266.6 179.6 266.2 181.8C266 183.1 265.5 184.2 263.4 185.6L258.8 188.8L265.6 189.9Z" fill="#263238"/>
<path d="M307 197.8L305 210.9L303.1 210.6L304.8 199.1L301.8 198.7L302 197.1L307 197.8Z" fill="#263238"/>
<path d="M335.2 249.1L335 250.7L325.6 249.3L325.8 248L331.9 243.7C333.5 242.6 333.9 241.8 334 241C334.2 239.7 333.4 238.7 331.5 238.4C330.1 238.2 328.9 238.5 327.9 239.3L326.8 238C328 236.9 329.8 236.4 331.9 236.7C334.6 237.1 336.2 238.8 335.8 241C335.6 242.3 335.1 243.4 333 244.8L328.4 248L335.2 249.1Z" fill="#263238"/>
<path d="M338.9 291C338.6 293.2 336.7 294.8 333.3 294.2C331.4 293.9 329.7 293 328.7 291.9L329.8 290.6C330.6 291.6 331.9 292.4 333.5 292.6C335.5 292.9 336.7 292.2 336.9 290.8C337.1 289.4 336.3 288.4 334 288L333 287.8L333.2 286.5L337.1 283L330.8 282L331 280.4L339.6 281.7L339.4 283L335.3 286.7C338.1 287.3 339.2 289 338.9 291Z" fill="#263238"/>
<path d="M324 336.5L321.5 336.1L321 339.3L319.2 339L319.7 335.8L312.4 334.7L312.6 333.4L320.6 325.9L322.6 326.2L314.9 333.5L319.9 334.3L320.3 331.5L322.1 331.8L321.7 334.6L324.2 335L324 336.5Z" fill="#263238"/>
<path d="M284.5 361.7C284.2 364 282.3 365.5 278.9 365C277 364.7 275.3 363.8 274.3 362.7L275.4 361.4C276.2 362.4 277.5 363.2 279.1 363.4C281.1 363.7 282.3 363 282.6 361.5C282.8 360 282 359 279 358.5L276 358L277.7 351.3L285.1 352.4L284.9 354L279.1 353.1L278.2 356.6L279.7 356.8C283.5 357.6 284.8 359.4 284.5 361.7Z" fill="#263238"/>
<path d="M237.2 369.3C236.8 371.8 234.5 373.1 231.9 372.7C228.4 372.2 226.8 369.5 227.4 365.3C228.1 360.8 231 358.8 234.6 359.4C235.8 359.6 237 360 237.7 360.7L236.8 362.1C236.2 361.5 235.3 361.2 234.4 361.1C231.7 360.7 229.8 362.1 229.3 365.4C229.3 365.5 229.3 365.7 229.2 365.9C230.1 364.9 231.6 364.5 233.2 364.8C236 365.1 237.6 366.9 237.2 369.3ZM235.4 369.1C235.6 367.6 234.6 366.4 232.8 366.1C231 365.8 229.6 366.7 229.4 368.2C229.2 369.5 230.1 370.9 232.1 371.2C233.8 371.5 235.2 370.7 235.4 369.1Z" fill="#263238"/>
<path d="M197.6 339.2L197.4 340.5L190.3 351.5L188.3 351.2L195.2 340.5L189.2 339.6L188.8 341.9L187 341.6L187.6 337.6L197.6 339.2Z" fill="#263238"/>
<path d="M168.8 312.5C168.4 314.9 166.2 316 163 315.6C159.8 315.1 158 313.3 158.4 311C158.6 309.5 159.6 308.5 161.2 308.2C160.1 307.5 159.6 306.4 159.8 305.1C160.1 302.9 162.2 301.8 165.1 302.3C167.9 302.7 169.6 304.4 169.3 306.6C169.1 307.9 168.3 308.8 167 309.1C168.4 309.7 169.1 311 168.8 312.5ZM167 312.1C167.2 310.7 166.1 309.6 164 309.3C161.9 309 160.6 309.7 160.3 311.1C160.1 312.6 161.2 313.7 163.2 314C165.4 314.3 166.8 313.6 167 312.1ZM161.7 305.3C161.5 306.6 162.4 307.6 164.2 307.8C166 308.1 167.2 307.4 167.4 306.1C167.6 304.8 166.6 303.8 164.8 303.5C163.1 303.4 161.9 304 161.7 305.3Z" fill="#263238"/>
<path d="M162.5 260.1C161.8 264.6 158.9 266.6 155.3 266C154.1 265.8 152.9 265.4 152.2 264.7L153.1 263.3C153.7 263.9 154.6 264.2 155.5 264.3C158.2 264.7 160.1 263.3 160.6 260L160.7 259.5C159.8 260.5 158.3 260.9 156.7 260.6C154.1 260.2 152.5 258.4 152.8 256C153.2 253.5 155.4 252.2 158 252.6C161.5 253.3 163.1 256 162.5 260.1ZM160.6 257.3C160.8 256 159.9 254.6 157.9 254.3C156.2 254 154.9 254.9 154.6 256.4C154.4 257.9 155.4 259.1 157.2 259.4C159 259.6 160.4 258.7 160.6 257.3Z" fill="#263238"/>
<path d="M173.5 212.7L171.5 225.8L169.6 225.5L171.3 214L168.3 213.6L168.5 212L173.5 212.7Z" fill="#263238"/>
<path d="M175.4 219.7C176 215.4 178.7 213.4 181.8 213.8C184.8 214.3 186.8 217 186.1 221.3C185.5 225.6 182.8 227.6 179.8 227.2C176.6 226.8 174.7 224 175.4 219.7ZM184.2 221.1C184.7 217.8 183.5 215.9 181.5 215.5C179.4 215.2 177.8 216.7 177.3 220C176.8 223.3 178 225.2 180 225.6C182 225.9 183.7 224.4 184.2 221.1Z" fill="#263238"/>
<path d="M210.8 183.2L208.8 196.3L206.9 196L208.6 184.5L205.6 184.1L205.8 182.5L210.8 183.2Z" fill="#263238"/>
<path d="M217.7 184.2L215.7 197.3L213.8 197L215.5 185.5L212.5 185.1L212.7 183.5L217.7 184.2Z" fill="#263238"/>
<path d="M179.9 228.6C196.7 239.6 213.2 251 229.8 262.2C235.1 265.7 240.3 269.2 245.6 272.7C247.2 273.8 248.7 271.2 247.1 270.1C230.3 259.1 213.8 247.7 197.2 236.5C191.9 233 186.7 229.5 181.4 226C179.8 224.9 178.3 227.5 179.9 228.6Z" fill="#D7504D"/>
<path d="M299.1 346.3C299 347.2 298.1 347.9 297.1 347.7C296.2 347.6 295.5 346.7 295.7 345.7C295.9 344.7 296.7 344.1 297.7 344.3C298.6 344.5 299.2 345.4 299.1 346.3Z" fill="#263238"/>
<path d="M255.9 364.4C255.8 365.3 254.9 366 253.9 365.8C253 365.7 252.3 364.8 252.5 363.8C252.6 362.9 253.5 362.2 254.5 362.4C255.4 362.5 256 363.4 255.9 364.4Z" fill="#263238"/>
<path d="M326.8 311.2C326.7 312.1 325.8 312.8 324.8 312.6C323.9 312.5 323.2 311.6 323.4 310.6C323.5 309.7 324.4 309 325.4 309.2C326.3 309.4 327 310.3 326.8 311.2Z" fill="#263238"/>
<path d="M331.597 263.856C332.391 263.355 332.628 262.306 332.127 261.512C331.626 260.718 330.576 260.48 329.782 260.981C328.988 261.482 328.751 262.532 329.252 263.326C329.753 264.12 330.803 264.357 331.597 263.856Z" fill="#263238"/>
<path d="M316.7 218.8C316.6 219.7 315.7 220.4 314.7 220.2C313.8 220.1 313.1 219.2 313.3 218.2C313.4 217.3 314.3 216.6 315.3 216.8C316.2 216.9 316.9 217.8 316.7 218.8Z" fill="#263238"/>
<path d="M284 191.8C283.9 192.7 283 193.4 282 193.2C281.1 193.1 280.4 192.2 280.6 191.2C280.7 190.3 281.6 189.6 282.6 189.8C283.5 190 284.1 190.9 284 191.8Z" fill="#263238"/>
<path d="M170.5 326.8C170.4 327.7 171 328.6 171.9 328.8C172.8 328.9 173.7 328.3 173.9 327.4C174 326.5 173.4 325.6 172.5 325.4C171.5 325.2 170.6 325.8 170.5 326.8Z" fill="#263238"/>
<path d="M206.4 356.8C206.3 357.7 206.9 358.6 207.8 358.8C208.7 358.9 209.6 358.3 209.8 357.4C209.9 356.5 209.3 355.6 208.4 355.4C207.4 355.3 206.5 355.9 206.4 356.8Z" fill="#263238"/>
<path d="M154.4 285C154.3 285.9 154.9 286.8 155.8 287C156.7 287.1 157.6 286.5 157.8 285.6C157.9 284.7 157.3 283.8 156.4 283.6C155.5 283.4 154.6 284.1 154.4 285Z" fill="#263238"/>
<path d="M166.172 238.595C166.935 238.047 167.109 236.985 166.562 236.222C166.014 235.459 164.952 235.285 164.189 235.833C163.427 236.38 163.252 237.443 163.8 238.205C164.348 238.968 165.41 239.142 166.172 238.595Z" fill="#263238"/>
<path d="M191.5 199.7C191.4 200.6 192 201.5 192.9 201.7C193.8 201.8 194.7 201.2 194.9 200.3C195 199.4 194.4 198.5 193.5 198.3C192.6 198.1 191.7 198.8 191.5 199.7Z" fill="#263238"/>
<path d="M230.8 183.8C230.7 184.7 231.3 185.6 232.2 185.8C233.1 185.9 234 185.3 234.2 184.4C234.3 183.5 233.7 182.6 232.8 182.4C231.8 182.2 230.9 182.8 230.8 183.8Z" fill="#263238"/>
<path d="M253.1 272C253.4 275.8 250.6 279.1 246.9 279.4C243.1 279.7 239.8 276.9 239.5 273.2C239.2 269.4 242 266.1 245.7 265.8C249.4 265.4 252.8 268.2 253.1 272Z" fill="#263238"/>
<g opacity="0.3">
<path d="M142.3 308.3C138 310.4 133.7 312.5 129.4 314.6C134.8 330.3 143.2 344.6 154.1 356.8C159 355.2 163.9 353.5 168.9 351.7C156.8 339.6 147.6 324.7 142.3 308.3Z" fill="white"/>
</g>
<g opacity="0.3">
<path d="M269.8 169C283.9 172.2 296.8 178.1 308 186C308.8 181.3 311.3 177.1 314.6 173.3C303.7 165.9 291.6 160.2 278.4 156.6C274.7 160.1 271.8 164.4 269.8 169Z" fill="white"/>
</g>
<g opacity="0.3">
<path d="M187.9 366.9C183.8 364.3 179.9 361.5 176.2 358.4C171.7 360.7 167.4 363.2 163.3 366C166.6 369 170 371.7 173.6 374.3C178.1 371.6 182.9 369.2 187.9 366.9Z" fill="white"/>
</g>
<g opacity="0.3">
<path d="M346.9 235.5C349.4 229.9 352.1 224.3 355 218.9C351.9 212.8 348.3 207.1 344.3 201.6C342.2 206.9 340.1 212.2 337.9 217.5C341.4 223.2 344.5 229.2 346.9 235.5Z" fill="white"/>
</g>
<g opacity="0.3">
<path d="M245.9 381.6C240.5 381.6 235.1 381.2 229.6 380.4C171.4 371.6 131.3 317.1 140.2 258.9C144.5 230.7 159.5 205.9 182.4 189C205.3 172.1 233.5 165.2 261.7 169.4C319.9 178.2 360 232.7 351.1 290.9C346.8 319.1 331.8 343.9 308.9 360.8C290.4 374.4 268.4 381.6 245.9 381.6ZM245.4 170.2C223.2 170.2 201.7 177.2 183.6 190.6C161.1 207.2 146.4 231.5 142.2 259.2C133.5 316.3 172.9 369.8 230 378.4C257.6 382.6 285.3 375.8 307.8 359.2C330.3 342.6 345 318.3 349.2 290.6C353.4 263 346.6 235.3 330 212.8C313.4 190.3 289.1 175.6 261.4 171.4C256 170.6 250.7 170.2 245.4 170.2Z" fill="black"/>
</g>
</svg>
