<svg width="186" height="166" viewBox="0 0 186 166" fill="none" xmlns="http://www.w3.org/2000/svg">
<path d="M176.712 73.8427C176.015 73.8427 175.551 73.8427 174.854 74.0749L141.416 16.0225C143.041 14.397 144.202 12.0749 144.202 9.5206C144.202 4.41199 140.022 0.232211 134.914 0.232211C130.27 0.232211 126.554 3.48315 125.858 7.89513H59.4457C58.7491 3.48315 55.0337 0 50.3895 0C45.2809 0 41.1011 4.17978 41.1011 9.28839C41.1011 12.3071 42.4944 14.8614 44.5843 16.4869L11.3783 74.0749C10.6816 73.8427 9.98502 73.8427 9.28839 73.8427C4.17978 73.8427 0 78.0225 0 83.1311C0 88.2397 4.17978 92.4195 9.28839 92.4195C9.98502 92.4195 10.6816 92.4195 11.3783 92.1873L44.3521 149.311C42.2622 150.936 41.1011 153.491 41.1011 156.277C41.1011 161.386 45.2809 165.566 50.3895 165.566C54.8015 165.566 58.5169 162.547 59.4457 158.367H88.9363C89.633 159.992 91.2584 161.154 93.1161 161.154C94.9738 161.154 96.5993 159.992 97.2959 158.367H125.625C126.554 162.547 130.27 165.566 134.682 165.566C139.79 165.566 143.97 161.386 143.97 156.277C143.97 153.723 143.041 151.401 141.416 149.775L174.854 91.955C175.551 92.1873 176.015 92.1873 176.712 92.1873C181.82 92.1873 186 88.0075 186 82.8989C186 78.0225 181.82 73.8427 176.712 73.8427ZM136.075 59.9101L168.584 78.7191C168.12 79.8802 167.655 81.0412 167.655 82.2022H136.075V59.9101ZM167.423 83.8277C167.423 85.221 167.888 86.382 168.352 87.3109L138.629 104.494C137.933 103.566 137.004 103.101 135.843 102.869V83.8277H167.423V83.8277ZM130.502 107.513C130.502 108.21 130.734 108.674 130.734 109.139L114.479 118.427L94.5094 83.5955H134.682V102.637C132.127 103.101 130.502 105.191 130.502 107.513ZM51.7828 107.049V87.5431C53.8727 87.3109 55.4981 85.6854 55.9626 83.8277H91.9551L72.6817 117.034C72.4494 117.034 72.2172 117.034 71.985 117.034C71.2884 117.034 70.5918 117.266 70.1273 117.73L51.7828 107.049ZM74.0749 117.73L93.1161 84.5243L113.086 119.356L93.1161 130.966L74.7715 120.285C74.7715 120.052 74.7715 119.82 74.7715 119.82C74.7715 118.891 74.5393 118.195 74.0749 117.73ZM91.2584 36.2247C91.7229 36.6891 92.4195 36.9213 93.1161 36.9213C93.8127 36.9213 94.5094 36.6891 94.9738 36.2247L109.603 44.8165C109.371 45.5131 109.139 45.9775 109.139 46.6742C109.139 48.0674 109.835 49.4607 110.996 50.3895L93.1161 81.5056L73.1461 46.6742L91.2584 36.2247ZM114.015 51.5506C115.64 51.5506 117.034 50.8539 117.73 49.6929L134.449 59.4457V82.6667H94.5094L112.39 51.5506C112.854 51.3184 113.551 51.5506 114.015 51.5506ZM134.449 18.5768V57.3558L118.427 48.0674C118.659 47.603 118.659 47.1386 118.659 46.6742C118.659 45.2809 117.963 43.8876 117.034 42.9588L131.431 17.8802C132.36 18.3446 133.521 18.5768 134.449 18.5768ZM130.27 17.4157L115.873 42.2622C115.408 42.03 114.712 42.03 114.015 42.03C112.622 42.03 111.461 42.7266 110.532 43.6554L95.6704 35.0637C95.6704 34.8315 95.9026 34.5992 95.9026 34.367C95.9026 34.1348 95.9026 33.9026 95.9026 33.9026L127.715 15.5581C128.412 16.0225 129.109 16.9513 130.27 17.4157ZM59.2135 12.3071H126.09C126.322 13.0037 126.554 13.4682 126.787 14.1648L94.9738 32.5094C94.5094 32.0449 93.8127 31.5805 92.8839 31.5805C92.1873 31.5805 91.4906 31.8127 90.794 32.5094L58.2847 13.7004C58.9813 13.236 58.9813 12.7715 59.2135 12.3071ZM57.8202 14.8614L90.3296 33.6704C90.3296 33.9026 90.3296 34.1348 90.3296 34.1348C90.3296 34.367 90.3296 34.5992 90.5618 34.8315L72.4494 45.2809L55.9626 16.7191C56.6592 16.2547 57.3558 15.5581 57.8202 14.8614ZM51.7828 18.5768C52.7116 18.3446 53.6405 18.1124 54.5693 17.6479L71.0562 46.2097L51.7828 57.3558V18.5768V18.5768ZM71.7528 47.603L91.7229 82.4345H55.7303C55.4981 80.3446 53.8727 78.4869 51.5506 78.2547V59.2135L71.7528 47.603ZM46.442 82.2022H18.5768C18.5768 81.0412 18.1124 79.6479 17.6479 78.7191L50.1573 59.9101V78.0225C48.2996 78.7191 46.6742 80.3446 46.442 82.2022ZM48.5318 18.5768C48.9963 18.5768 49.4607 18.809 50.1573 18.809V58.5169L16.7191 77.7903C16.2547 77.3258 15.7903 76.6292 15.3258 76.1648L48.5318 18.5768ZM50.1573 146.989C49.4607 146.989 48.9963 146.989 48.5318 147.221L15.5581 90.0974C16.0225 89.633 16.4869 89.1685 16.9513 88.4719L50.3895 107.745V146.989H50.1573ZM17.6479 87.3109C18.1124 86.1498 18.5768 84.9888 18.5768 83.8277H46.442C46.9064 85.6854 48.2996 87.0787 50.1573 87.5431V106.12L17.6479 87.3109ZM51.7828 147.221V108.674L69.4307 118.891C69.4307 119.124 69.1985 119.356 69.1985 119.588C69.1985 120.285 69.4307 120.981 69.8951 121.446L54.5693 147.918C53.8727 147.685 52.7116 147.221 51.7828 147.221ZM55.9626 148.846L71.2884 122.375C71.5206 122.375 71.7528 122.375 71.985 122.375C72.6817 122.375 73.3783 122.142 74.0749 121.446L91.7229 131.663L58.2847 150.936C57.588 150.24 56.8914 149.543 55.9626 148.846ZM125.858 153.955H97.0637C96.1348 152.562 94.7416 151.633 93.1161 151.633C91.4906 151.633 89.8652 152.562 89.1685 153.955H59.4457C59.2135 153.491 59.2135 153.026 58.9813 152.562L93.3483 132.824L126.554 152.097C126.322 152.562 126.09 153.258 125.858 153.955ZM127.483 150.704L94.7416 131.663L114.015 120.517L130.037 148.382C129.109 149.079 128.18 149.775 127.483 150.704ZM131.431 147.685L115.408 119.82L131.663 110.532C132.36 111.461 133.521 112.157 134.682 112.157V146.989C133.521 147.221 132.36 147.453 131.431 147.685ZM137.7 147.453C137.236 147.221 136.539 147.221 136.075 146.989V112.157C138.165 111.693 139.79 109.835 139.79 107.513C139.79 106.816 139.558 106.352 139.558 105.888L169.281 88.7041C169.745 89.1685 170.21 89.8652 170.674 90.3296L137.7 147.453ZM169.281 77.5581L136.075 58.2846V18.5768C136.539 18.5768 137.004 18.3446 137.468 18.3446L170.674 75.9326C170.21 76.397 169.745 76.8614 169.281 77.5581Z" fill="url(#paint0_linear_81_372)"/>
<defs>
<linearGradient id="paint0_linear_81_372" x1="-3.5" y1="-1.5" x2="196.5" y2="172.5" gradientUnits="userSpaceOnUse">
<stop stop-color="#48CAE4" stop-opacity="0.7"/>
<stop offset="0.494792" stop-color="#40ABE8"/>
<stop offset="1" stop-color="#1400FF"/>
</linearGradient>
</defs>
</svg>
