<svg width="44" height="39" viewBox="0 0 44 39" fill="none" xmlns="http://www.w3.org/2000/svg">
<path d="M1.6454 36.8142H0V38.5946H1.6454V36.8142Z" fill="#2A97FF"/>
<path d="M3.28773 36.8142H1.64233V38.5946H3.28773V36.8142Z" fill="#2A97FF"/>
<path d="M4.93315 35.0338H3.28775V36.8142H4.93315V35.0338Z" fill="#2A97FF"/>
<path d="M8.22087 36.8142H6.57547V38.5946H8.22087V36.8142Z" fill="#2A97FF"/>
<path d="M1.6454 19.017H0V20.7973H1.6454V19.017Z" fill="#2A97FF"/>
<path d="M3.28773 19.017H1.64233V20.7973H3.28773V19.017Z" fill="#2A97FF"/>
<path d="M6.57854 19.017H4.93314V20.7973H6.57854V19.017Z" fill="#2A97FF"/>
<path d="M8.22087 19.017H6.57547V20.7973H8.22087V19.017Z" fill="#2A97FF"/>
<path d="M11.5086 19.017H9.86322V20.7973H11.5086V19.017Z" fill="#2A97FF"/>
<path d="M16.4418 19.017H14.7964V20.7973H16.4418V19.017Z" fill="#2A97FF"/>
<path d="M21.3749 19.017H19.7295V20.7973H21.3749V19.017Z" fill="#2A97FF"/>
<path d="M3.28773 20.7973H1.64233V22.5777H3.28773V20.7973Z" fill="#2A97FF"/>
<path d="M6.57854 20.7973H4.93314V22.5777H6.57854V20.7973Z" fill="#2A97FF"/>
<path d="M9.86629 20.7973H8.22089V22.5777H9.86629V20.7973Z" fill="#2A97FF"/>
<path d="M11.5086 20.7973H9.86322V22.5777H11.5086V20.7973Z" fill="#2A97FF"/>
<path d="M13.154 20.7973H11.5086V22.5777H13.154V20.7973Z" fill="#2A97FF"/>
<path d="M14.7964 20.7973H13.151V22.5777H14.7964V20.7973Z" fill="#2A97FF"/>
<path d="M19.7295 20.7973H18.0841V22.5777H19.7295V20.7973Z" fill="#2A97FF"/>
<path d="M1.6454 22.5777H0V24.3581H1.6454V22.5777Z" fill="#2A97FF"/>
<path d="M11.5086 22.5777H9.86322V24.3581H11.5086V22.5777Z" fill="#2A97FF"/>
<path d="M13.154 22.5777H11.5086V24.3581H13.154V22.5777Z" fill="#2A97FF"/>
<path d="M21.3749 22.522H19.7295V24.3024H21.3749V22.522Z" fill="#2A97FF"/>
<path d="M3.28773 24.3548H1.64233V26.1352H3.28773V24.3548Z" fill="#2A97FF"/>
<path d="M4.93315 24.3548H3.28775V26.1352H4.93315V24.3548Z" fill="#2A97FF"/>
<path d="M9.86629 24.3548H8.22089V26.1352H9.86629V24.3548Z" fill="#2A97FF"/>
<path d="M13.154 24.3548H11.5086V26.1352H13.154V24.3548Z" fill="#2A97FF"/>
<path d="M14.7964 24.3548H13.151V26.1352H14.7964V24.3548Z" fill="#2A97FF"/>
<path d="M16.4418 24.3548H14.7964V26.1352H16.4418V24.3548Z" fill="#2A97FF"/>
<path d="M3.28773 26.1352H1.64233V27.9156H3.28773V26.1352Z" fill="#2A97FF"/>
<path d="M4.93315 26.1352H3.28775V27.9156H4.93315V26.1352Z" fill="#2A97FF"/>
<path d="M8.22087 26.1352H6.57547V27.9156H8.22087V26.1352Z" fill="#2A97FF"/>
<path d="M11.5086 26.1352H9.86322V27.9156H11.5086V26.1352Z" fill="#2A97FF"/>
<path d="M16.4418 26.1352H14.7964V27.9156H16.4418V26.1352Z" fill="#2A97FF"/>
<path d="M19.7295 26.1352H18.0841V27.9156H19.7295V26.1352Z" fill="#2A97FF"/>
<path d="M6.57854 22.522H4.93314V24.3024H6.57854V22.522Z" fill="#2A97FF"/>
<path d="M4.93315 27.9156H3.28775V29.696H4.93315V27.9156Z" fill="#2A97FF"/>
<path d="M6.57854 27.9156H4.93314V29.696H6.57854V27.9156Z" fill="#2A97FF"/>
<path d="M8.22087 27.9156H6.57547V29.696H8.22087V27.9156Z" fill="#2A97FF"/>
<path d="M9.86629 27.9156H8.22089V29.696H9.86629V27.9156Z" fill="#2A97FF"/>
<path d="M11.5086 27.9156H9.86322V29.696H11.5086V27.9156Z" fill="#2A97FF"/>
<path d="M14.7964 27.9156H13.151V29.696H14.7964V27.9156Z" fill="#2A97FF"/>
<path d="M8.22087 29.696H6.57547V31.4764H8.22087V29.696Z" fill="#2A97FF"/>
<path d="M11.5086 29.696H9.86322V31.4764H11.5086V29.696Z" fill="#2A97FF"/>
<path d="M14.7964 29.696H13.151V31.4764H14.7964V29.696Z" fill="#2A97FF"/>
<path d="M19.7295 29.696H18.0841V31.4764H19.7295V29.696Z" fill="#2A97FF"/>
<path d="M3.28773 31.4763H1.64233V33.2567H3.28773V31.4763Z" fill="#2A97FF"/>
<path d="M4.93315 29.696H3.28775V31.4764H4.93315V29.696Z" fill="#2A97FF"/>
<path d="M6.57854 31.4763H4.93314V33.2567H6.57854V31.4763Z" fill="#2A97FF"/>
<path d="M9.86629 31.4763H8.22089V33.2567H9.86629V31.4763Z" fill="#2A97FF"/>
<path d="M11.5086 31.4763H9.86322V33.2567H11.5086V31.4763Z" fill="#2A97FF"/>
<path d="M16.4418 31.4763H14.7964V33.2567H16.4418V31.4763Z" fill="#2A97FF"/>
<path d="M18.0841 31.4763H16.4387V33.2567H18.0841V31.4763Z" fill="#2A97FF"/>
<path d="M19.7295 31.4763H18.0841V33.2567H19.7295V31.4763Z" fill="#2A97FF"/>
<path d="M21.3749 31.4763H19.7295V33.2567H21.3749V31.4763Z" fill="#2A97FF"/>
<path d="M13.154 33.2535H11.5086V35.0339H13.154V33.2535Z" fill="#2A97FF"/>
<path d="M14.7964 33.2535H13.151V35.0339H14.7964V33.2535Z" fill="#2A97FF"/>
<path d="M18.0841 33.2535H16.4387V35.0339H18.0841V33.2535Z" fill="#2A97FF"/>
<path d="M3.28773 33.2535H1.64233V35.0339H3.28773V33.2535Z" fill="#2A97FF"/>
<path d="M1.6454 35.0338H0V36.8142H1.6454V35.0338Z" fill="#2A97FF"/>
<path d="M11.5086 33.2535H9.86322V35.0339H11.5086V33.2535Z" fill="#2A97FF"/>
<path d="M9.86629 35.0338H8.22089V36.8142H9.86629V35.0338Z" fill="#2A97FF"/>
<path d="M9.86629 36.8142H8.22089V38.5946H9.86629V36.8142Z" fill="#2A97FF"/>
<path d="M16.4418 35.0338H14.7964V36.8142H16.4418V35.0338Z" fill="#2A97FF"/>
<path d="M19.7295 35.0338H18.0841V36.8142H19.7295V35.0338Z" fill="#2A97FF"/>
<path d="M18.0841 36.8142H16.4387V38.5946H18.0841V36.8142Z" fill="#2A97FF"/>
<path d="M13.154 35.0338H11.5086V36.8142H13.154V35.0338Z" fill="#2A97FF"/>
<path d="M6.57854 33.2535H4.93314V35.0339H6.57854V33.2535Z" fill="#2A97FF"/>
<path d="M21.3749 33.2535H19.7295V35.0339H21.3749V33.2535Z" fill="#2A97FF"/>
<path d="M2.56291 17.7972H0.917511V19.5776H2.56291V17.7972Z" fill="#2A97FF"/>
<path d="M4.20524 17.7972H2.55984V19.5776H4.20524V17.7972Z" fill="#2A97FF"/>
<path d="M5.85063 16.0169H4.20523V17.7973H5.85063V16.0169Z" fill="#2A97FF"/>
<path d="M9.13841 17.7972H7.49301V19.5776H9.13841V17.7972Z" fill="#2A97FF"/>
<path d="M2.56291 0H0.917511V1.78038H2.56291V0Z" fill="#2A97FF"/>
<path d="M4.20524 0H2.55984V1.78038H4.20524V0Z" fill="#2A97FF"/>
<path d="M7.49605 0H5.85065V1.78038H7.49605V0Z" fill="#2A97FF"/>
<path d="M9.13841 0H7.49301V1.78038H9.13841V0Z" fill="#2A97FF"/>
<path d="M12.4261 0H10.7807V1.78038H12.4261V0Z" fill="#2A97FF"/>
<path d="M17.3593 0H15.7139V1.78038H17.3593V0Z" fill="#2A97FF"/>
<path d="M22.2924 0H20.647V1.78038H22.2924V0Z" fill="#2A97FF"/>
<path d="M4.20524 1.78036H2.55984V3.56075H4.20524V1.78036Z" fill="#2A97FF"/>
<path d="M7.49605 1.78036H5.85065V3.56075H7.49605V1.78036Z" fill="#2A97FF"/>
<path d="M10.7838 1.78036H9.13837V3.56075H10.7838V1.78036Z" fill="#2A97FF"/>
<path d="M12.4261 1.78036H10.7807V3.56075H12.4261V1.78036Z" fill="#2A97FF"/>
<path d="M14.0715 1.78036H12.4261V3.56075H14.0715V1.78036Z" fill="#2A97FF"/>
<path d="M15.7139 1.78036H14.0685V3.56075H15.7139V1.78036Z" fill="#2A97FF"/>
<path d="M20.647 1.78036H19.0016V3.56075H20.647V1.78036Z" fill="#2A97FF"/>
<path d="M2.56291 3.56079H0.917511V5.34117H2.56291V3.56079Z" fill="#2A97FF"/>
<path d="M12.4261 3.56079H10.7807V5.34117H12.4261V3.56079Z" fill="#2A97FF"/>
<path d="M14.0715 3.56079H12.4261V5.34117H14.0715V3.56079Z" fill="#2A97FF"/>
<path d="M22.2924 3.50504H20.647V5.28541H22.2924V3.50504Z" fill="#2A97FF"/>
<path d="M4.20524 5.33786H2.55984V7.11824H4.20524V5.33786Z" fill="#2A97FF"/>
<path d="M5.85063 5.33786H4.20523V7.11824H5.85063V5.33786Z" fill="#2A97FF"/>
<path d="M10.7838 5.33786H9.13837V7.11824H10.7838V5.33786Z" fill="#2A97FF"/>
<path d="M14.0715 5.33786H12.4261V7.11824H14.0715V5.33786Z" fill="#2A97FF"/>
<path d="M15.7139 5.33786H14.0685V7.11824H15.7139V5.33786Z" fill="#2A97FF"/>
<path d="M17.3593 5.33786H15.7139V7.11824H17.3593V5.33786Z" fill="#2A97FF"/>
<path d="M4.20524 7.11826H2.55984V8.89864H4.20524V7.11826Z" fill="#2A97FF"/>
<path d="M5.85063 7.11826H4.20523V8.89864H5.85063V7.11826Z" fill="#2A97FF"/>
<path d="M9.13841 7.11826H7.49301V8.89864H9.13841V7.11826Z" fill="#2A97FF"/>
<path d="M12.4261 7.11826H10.7807V8.89864H12.4261V7.11826Z" fill="#2A97FF"/>
<path d="M17.3593 7.11826H15.7139V8.89864H17.3593V7.11826Z" fill="#2A97FF"/>
<path d="M20.647 7.11826H19.0016V8.89864H20.647V7.11826Z" fill="#2A97FF"/>
<path d="M7.49605 3.50504H5.85065V5.28541H7.49605V3.50504Z" fill="#2A97FF"/>
<path d="M5.85063 8.89862H4.20523V10.679H5.85063V8.89862Z" fill="#2A97FF"/>
<path d="M7.49605 8.89862H5.85065V10.679H7.49605V8.89862Z" fill="#2A97FF"/>
<path d="M9.13841 8.89862H7.49301V10.679H9.13841V8.89862Z" fill="#2A97FF"/>
<path d="M10.7838 8.89862H9.13837V10.679H10.7838V8.89862Z" fill="#2A97FF"/>
<path d="M12.4261 8.89862H10.7807V10.679H12.4261V8.89862Z" fill="#2A97FF"/>
<path d="M15.7139 8.89862H14.0685V10.679H15.7139V8.89862Z" fill="#2A97FF"/>
<path d="M9.13841 10.679H7.49301V12.4594H9.13841V10.679Z" fill="#2A97FF"/>
<path d="M12.4261 10.679H10.7807V12.4594H12.4261V10.679Z" fill="#2A97FF"/>
<path d="M15.7139 10.679H14.0685V12.4594H15.7139V10.679Z" fill="#2A97FF"/>
<path d="M20.647 10.679H19.0016V12.4594H20.647V10.679Z" fill="#2A97FF"/>
<path d="M4.20524 12.4594H2.55984V14.2398H4.20524V12.4594Z" fill="#2A97FF"/>
<path d="M5.85063 10.679H4.20523V12.4594H5.85063V10.679Z" fill="#2A97FF"/>
<path d="M7.49605 12.4594H5.85065V14.2398H7.49605V12.4594Z" fill="#2A97FF"/>
<path d="M10.7838 12.4594H9.13837V14.2398H10.7838V12.4594Z" fill="#2A97FF"/>
<path d="M12.4261 12.4594H10.7807V14.2398H12.4261V12.4594Z" fill="#2A97FF"/>
<path d="M17.3593 12.4594H15.7139V14.2398H17.3593V12.4594Z" fill="#2A97FF"/>
<path d="M19.0016 12.4594H17.3562V14.2398H19.0016V12.4594Z" fill="#2A97FF"/>
<path d="M20.647 12.4594H19.0016V14.2398H20.647V12.4594Z" fill="#2A97FF"/>
<path d="M22.2924 12.4594H20.647V14.2398H22.2924V12.4594Z" fill="#2A97FF"/>
<path d="M14.0715 14.2365H12.4261V16.0169H14.0715V14.2365Z" fill="#2A97FF"/>
<path d="M15.7139 14.2365H14.0685V16.0169H15.7139V14.2365Z" fill="#2A97FF"/>
<path d="M19.0016 14.2365H17.3562V16.0169H19.0016V14.2365Z" fill="#2A97FF"/>
<path d="M4.20524 14.2365H2.55984V16.0169H4.20524V14.2365Z" fill="#2A97FF"/>
<path d="M2.56291 16.0169H0.917511V17.7973H2.56291V16.0169Z" fill="#2A97FF"/>
<path d="M12.4261 14.2365H10.7807V16.0169H12.4261V14.2365Z" fill="#2A97FF"/>
<path d="M10.7838 16.0169H9.13837V17.7973H10.7838V16.0169Z" fill="#2A97FF"/>
<path d="M10.7838 17.7972H9.13837V19.5776H10.7838V17.7972Z" fill="#2A97FF"/>
<path d="M17.3593 16.0169H15.7139V17.7973H17.3593V16.0169Z" fill="#2A97FF"/>
<path d="M20.647 16.0169H19.0016V17.7973H20.647V16.0169Z" fill="#2A97FF"/>
<path d="M19.0016 17.7972H17.3562V19.5776H19.0016V17.7972Z" fill="#2A97FF"/>
<path d="M14.0715 16.0169H12.4261V17.7973H14.0715V16.0169Z" fill="#2A97FF"/>
<path d="M7.49605 14.2365H5.85065V16.0169H7.49605V14.2365Z" fill="#2A97FF"/>
<path d="M22.2924 14.2365H20.647V16.0169H22.2924V14.2365Z" fill="#2A97FF"/>
<path d="M23.9715 36.4863H22.3261V38.2667H23.9715V36.4863Z" fill="#2A97FF"/>
<path d="M25.6138 36.4863H23.9684V38.2667H25.6138V36.4863Z" fill="#2A97FF"/>
<path d="M27.2592 34.706H25.6138V36.4863H27.2592V34.706Z" fill="#2A97FF"/>
<path d="M30.5469 36.4863H28.9016V38.2667H30.5469V36.4863Z" fill="#2A97FF"/>
<path d="M23.9715 18.6891H22.3261V20.4695H23.9715V18.6891Z" fill="#2A97FF"/>
<path d="M25.6138 18.6891H23.9684V20.4695H25.6138V18.6891Z" fill="#2A97FF"/>
<path d="M28.9046 18.6891H27.2592V20.4695H28.9046V18.6891Z" fill="#2A97FF"/>
<path d="M30.5469 18.6891H28.9016V20.4695H30.5469V18.6891Z" fill="#2A97FF"/>
<path d="M33.8347 18.6891H32.1893V20.4695H33.8347V18.6891Z" fill="#2A97FF"/>
<path d="M38.7678 18.6891H37.1224V20.4695H38.7678V18.6891Z" fill="#2A97FF"/>
<path d="M43.701 18.6891H42.0556V20.4695H43.701V18.6891Z" fill="#2A97FF"/>
<path d="M25.6138 20.4695H23.9684V22.2499H25.6138V20.4695Z" fill="#2A97FF"/>
<path d="M28.9046 20.4695H27.2592V22.2499H28.9046V20.4695Z" fill="#2A97FF"/>
<path d="M32.1924 20.4695H30.547V22.2499H32.1924V20.4695Z" fill="#2A97FF"/>
<path d="M33.8347 20.4695H32.1893V22.2499H33.8347V20.4695Z" fill="#2A97FF"/>
<path d="M35.4801 20.4695H33.8347V22.2499H35.4801V20.4695Z" fill="#2A97FF"/>
<path d="M37.1224 20.4695H35.477V22.2499H37.1224V20.4695Z" fill="#2A97FF"/>
<path d="M42.0556 20.4695H40.4102V22.2499H42.0556V20.4695Z" fill="#2A97FF"/>
<path d="M23.9715 22.2498H22.3261V24.0302H23.9715V22.2498Z" fill="#2A97FF"/>
<path d="M33.8347 22.2498H32.1893V24.0302H33.8347V22.2498Z" fill="#2A97FF"/>
<path d="M35.4801 22.2498H33.8347V24.0302H35.4801V22.2498Z" fill="#2A97FF"/>
<path d="M43.701 22.1941H42.0556V23.9745H43.701V22.1941Z" fill="#2A97FF"/>
<path d="M25.6138 24.0269H23.9684V25.8073H25.6138V24.0269Z" fill="#2A97FF"/>
<path d="M27.2592 24.0269H25.6138V25.8073H27.2592V24.0269Z" fill="#2A97FF"/>
<path d="M32.1924 24.0269H30.547V25.8073H32.1924V24.0269Z" fill="#2A97FF"/>
<path d="M35.4801 24.0269H33.8347V25.8073H35.4801V24.0269Z" fill="#2A97FF"/>
<path d="M37.1224 24.0269H35.477V25.8073H37.1224V24.0269Z" fill="#2A97FF"/>
<path d="M38.7678 24.0269H37.1224V25.8073H38.7678V24.0269Z" fill="#2A97FF"/>
<path d="M25.6138 25.8073H23.9684V27.5877H25.6138V25.8073Z" fill="#2A97FF"/>
<path d="M27.2592 25.8073H25.6138V27.5877H27.2592V25.8073Z" fill="#2A97FF"/>
<path d="M30.5469 25.8073H28.9016V27.5877H30.5469V25.8073Z" fill="#2A97FF"/>
<path d="M33.8347 25.8073H32.1893V27.5877H33.8347V25.8073Z" fill="#2A97FF"/>
<path d="M38.7678 25.8073H37.1224V27.5877H38.7678V25.8073Z" fill="#2A97FF"/>
<path d="M42.0556 25.8073H40.4102V27.5877H42.0556V25.8073Z" fill="#2A97FF"/>
<path d="M28.9046 22.1941H27.2592V23.9745H28.9046V22.1941Z" fill="#2A97FF"/>
<path d="M27.2592 27.5877H25.6138V29.3681H27.2592V27.5877Z" fill="#2A97FF"/>
<path d="M28.9046 27.5877H27.2592V29.3681H28.9046V27.5877Z" fill="#2A97FF"/>
<path d="M30.5469 27.5877H28.9016V29.3681H30.5469V27.5877Z" fill="#2A97FF"/>
<path d="M32.1924 27.5877H30.547V29.3681H32.1924V27.5877Z" fill="#2A97FF"/>
<path d="M33.8347 27.5877H32.1893V29.3681H33.8347V27.5877Z" fill="#2A97FF"/>
<path d="M37.1224 27.5877H35.477V29.3681H37.1224V27.5877Z" fill="#2A97FF"/>
<path d="M30.5469 29.3681H28.9016V31.1485H30.5469V29.3681Z" fill="#2A97FF"/>
<path d="M33.8347 29.3681H32.1893V31.1485H33.8347V29.3681Z" fill="#2A97FF"/>
<path d="M37.1224 29.3681H35.477V31.1485H37.1224V29.3681Z" fill="#2A97FF"/>
<path d="M42.0556 29.3681H40.4102V31.1485H42.0556V29.3681Z" fill="#2A97FF"/>
<path d="M25.6138 31.1485H23.9684V32.9288H25.6138V31.1485Z" fill="#2A97FF"/>
<path d="M27.2592 29.3681H25.6138V31.1485H27.2592V29.3681Z" fill="#2A97FF"/>
<path d="M28.9046 31.1485H27.2592V32.9288H28.9046V31.1485Z" fill="#2A97FF"/>
<path d="M32.1924 31.1485H30.547V32.9288H32.1924V31.1485Z" fill="#2A97FF"/>
<path d="M33.8347 31.1485H32.1893V32.9288H33.8347V31.1485Z" fill="#2A97FF"/>
<path d="M38.7678 31.1485H37.1224V32.9288H38.7678V31.1485Z" fill="#2A97FF"/>
<path d="M40.4102 31.1485H38.7648V32.9288H40.4102V31.1485Z" fill="#2A97FF"/>
<path d="M42.0556 31.1485H40.4102V32.9288H42.0556V31.1485Z" fill="#2A97FF"/>
<path d="M43.701 31.1485H42.0556V32.9288H43.701V31.1485Z" fill="#2A97FF"/>
<path d="M35.4801 32.9256H33.8347V34.7059H35.4801V32.9256Z" fill="#2A97FF"/>
<path d="M37.1224 32.9256H35.477V34.7059H37.1224V32.9256Z" fill="#2A97FF"/>
<path d="M40.4102 32.9256H38.7648V34.7059H40.4102V32.9256Z" fill="#2A97FF"/>
<path d="M25.6138 32.9256H23.9684V34.7059H25.6138V32.9256Z" fill="#2A97FF"/>
<path d="M23.9715 34.706H22.3261V36.4863H23.9715V34.706Z" fill="#2A97FF"/>
<path d="M33.8347 32.9256H32.1893V34.7059H33.8347V32.9256Z" fill="#2A97FF"/>
<path d="M32.1924 34.706H30.547V36.4863H32.1924V34.706Z" fill="#2A97FF"/>
<path d="M32.1924 36.4863H30.547V38.2667H32.1924V36.4863Z" fill="#2A97FF"/>
<path d="M38.7678 34.706H37.1224V36.4863H38.7678V34.706Z" fill="#2A97FF"/>
<path d="M42.0556 34.706H40.4102V36.4863H42.0556V34.706Z" fill="#2A97FF"/>
<path d="M40.4102 36.4863H38.7648V38.2667H40.4102V36.4863Z" fill="#2A97FF"/>
<path d="M35.4801 34.706H33.8347V36.4863H35.4801V34.706Z" fill="#2A97FF"/>
<path d="M28.9046 32.9256H27.2592V34.7059H28.9046V32.9256Z" fill="#2A97FF"/>
<path d="M43.701 32.9256H42.0556V34.7059H43.701V32.9256Z" fill="#2A97FF"/>
<path d="M23.9715 16.9895H22.3261V18.6891H23.9715V16.9895Z" fill="#2A97FF"/>
<path d="M25.6138 16.9895H23.9684V18.6891H25.6138V16.9895Z" fill="#2A97FF"/>
<path d="M27.2592 15.2899H25.6138V16.9895H27.2592V15.2899Z" fill="#2A97FF"/>
<path d="M30.5469 16.9895H28.9016V18.6891H30.5469V16.9895Z" fill="#2A97FF"/>
<path d="M23.9715 0H22.3261V1.69958H23.9715V0Z" fill="#2A97FF"/>
<path d="M25.6138 0H23.9684V1.69958H25.6138V0Z" fill="#2A97FF"/>
<path d="M28.9046 0H27.2592V1.69958H28.9046V0Z" fill="#2A97FF"/>
<path d="M30.5469 0H28.9016V1.69958H30.5469V0Z" fill="#2A97FF"/>
<path d="M33.8347 0H32.1893V1.69958H33.8347V0Z" fill="#2A97FF"/>
<path d="M38.7678 0H37.1224V1.69958H38.7678V0Z" fill="#2A97FF"/>
<path d="M43.701 0H42.0556V1.69958H43.701V0Z" fill="#2A97FF"/>
<path d="M25.6138 1.69958H23.9684V3.39916H25.6138V1.69958Z" fill="#2A97FF"/>
<path d="M28.9046 1.69958H27.2592V3.39916H28.9046V1.69958Z" fill="#2A97FF"/>
<path d="M32.1924 1.69958H30.547V3.39916H32.1924V1.69958Z" fill="#2A97FF"/>
<path d="M33.8347 1.69958H32.1893V3.39916H33.8347V1.69958Z" fill="#2A97FF"/>
<path d="M35.4801 1.69958H33.8347V3.39916H35.4801V1.69958Z" fill="#2A97FF"/>
<path d="M37.1224 1.69958H35.477V3.39916H37.1224V1.69958Z" fill="#2A97FF"/>
<path d="M42.0556 1.69958H40.4102V3.39916H42.0556V1.69958Z" fill="#2A97FF"/>
<path d="M23.9715 3.39914H22.3261V5.09872H23.9715V3.39914Z" fill="#2A97FF"/>
<path d="M33.8347 3.39914H32.1893V5.09872H33.8347V3.39914Z" fill="#2A97FF"/>
<path d="M35.4801 3.39914H33.8347V5.09872H35.4801V3.39914Z" fill="#2A97FF"/>
<path d="M43.701 3.34595H42.0556V5.04552H43.701V3.34595Z" fill="#2A97FF"/>
<path d="M25.6138 5.09561H23.9684V6.79519H25.6138V5.09561Z" fill="#2A97FF"/>
<path d="M27.2592 5.09561H25.6138V6.79519H27.2592V5.09561Z" fill="#2A97FF"/>
<path d="M32.1924 5.09561H30.547V6.79519H32.1924V5.09561Z" fill="#2A97FF"/>
<path d="M35.4801 5.09561H33.8347V6.79519H35.4801V5.09561Z" fill="#2A97FF"/>
<path d="M37.1224 5.09561H35.477V6.79519H37.1224V5.09561Z" fill="#2A97FF"/>
<path d="M38.7678 5.09561H37.1224V6.79519H38.7678V5.09561Z" fill="#2A97FF"/>
<path d="M25.6138 6.7952H23.9684V8.49477H25.6138V6.7952Z" fill="#2A97FF"/>
<path d="M27.2592 6.7952H25.6138V8.49477H27.2592V6.7952Z" fill="#2A97FF"/>
<path d="M30.5469 6.7952H28.9016V8.49477H30.5469V6.7952Z" fill="#2A97FF"/>
<path d="M33.8347 6.7952H32.1893V8.49477H33.8347V6.7952Z" fill="#2A97FF"/>
<path d="M38.7678 6.7952H37.1224V8.49477H38.7678V6.7952Z" fill="#2A97FF"/>
<path d="M42.0556 6.7952H40.4102V8.49477H42.0556V6.7952Z" fill="#2A97FF"/>
<path d="M28.9046 3.34595H27.2592V5.04552H28.9046V3.34595Z" fill="#2A97FF"/>
<path d="M27.2592 8.49475H25.6138V10.1943H27.2592V8.49475Z" fill="#2A97FF"/>
<path d="M28.9046 8.49475H27.2592V10.1943H28.9046V8.49475Z" fill="#2A97FF"/>
<path d="M30.5469 8.49475H28.9016V10.1943H30.5469V8.49475Z" fill="#2A97FF"/>
<path d="M32.1924 8.49475H30.547V10.1943H32.1924V8.49475Z" fill="#2A97FF"/>
<path d="M33.8347 8.49475H32.1893V10.1943H33.8347V8.49475Z" fill="#2A97FF"/>
<path d="M37.1224 8.49475H35.477V10.1943H37.1224V8.49475Z" fill="#2A97FF"/>
<path d="M30.5469 10.1943H28.9016V11.8939H30.5469V10.1943Z" fill="#2A97FF"/>
<path d="M33.8347 10.1943H32.1893V11.8939H33.8347V10.1943Z" fill="#2A97FF"/>
<path d="M37.1224 10.1943H35.477V11.8939H37.1224V10.1943Z" fill="#2A97FF"/>
<path d="M42.0556 10.1943H40.4102V11.8939H42.0556V10.1943Z" fill="#2A97FF"/>
<path d="M25.6138 11.8939H23.9684V13.5935H25.6138V11.8939Z" fill="#2A97FF"/>
<path d="M27.2592 10.1943H25.6138V11.8939H27.2592V10.1943Z" fill="#2A97FF"/>
<path d="M28.9046 11.8939H27.2592V13.5935H28.9046V11.8939Z" fill="#2A97FF"/>
<path d="M32.1924 11.8939H30.547V13.5935H32.1924V11.8939Z" fill="#2A97FF"/>
<path d="M33.8347 11.8939H32.1893V13.5935H33.8347V11.8939Z" fill="#2A97FF"/>
<path d="M38.7678 11.8939H37.1224V13.5935H38.7678V11.8939Z" fill="#2A97FF"/>
<path d="M40.4102 11.8939H38.7648V13.5935H40.4102V11.8939Z" fill="#2A97FF"/>
<path d="M42.0556 11.8939H40.4102V13.5935H42.0556V11.8939Z" fill="#2A97FF"/>
<path d="M43.701 11.8939H42.0556V13.5935H43.701V11.8939Z" fill="#2A97FF"/>
<path d="M35.4801 13.5904H33.8347V15.2899H35.4801V13.5904Z" fill="#2A97FF"/>
<path d="M37.1224 13.5904H35.477V15.2899H37.1224V13.5904Z" fill="#2A97FF"/>
<path d="M40.4102 13.5904H38.7648V15.2899H40.4102V13.5904Z" fill="#2A97FF"/>
<path d="M25.6138 13.5904H23.9684V15.2899H25.6138V13.5904Z" fill="#2A97FF"/>
<path d="M23.9715 15.2899H22.3261V16.9895H23.9715V15.2899Z" fill="#2A97FF"/>
<path d="M33.8347 13.5904H32.1893V15.2899H33.8347V13.5904Z" fill="#2A97FF"/>
<path d="M32.1924 15.2899H30.547V16.9895H32.1924V15.2899Z" fill="#2A97FF"/>
<path d="M32.1924 16.9895H30.547V18.6891H32.1924V16.9895Z" fill="#2A97FF"/>
<path d="M38.7678 15.2899H37.1224V16.9895H38.7678V15.2899Z" fill="#2A97FF"/>
<path d="M42.0556 15.2899H40.4102V16.9895H42.0556V15.2899Z" fill="#2A97FF"/>
<path d="M40.4102 16.9895H38.7648V18.6891H40.4102V16.9895Z" fill="#2A97FF"/>
<path d="M35.4801 15.2899H33.8347V16.9895H35.4801V15.2899Z" fill="#2A97FF"/>
<path d="M28.9046 13.5904H27.2592V15.2899H28.9046V13.5904Z" fill="#2A97FF"/>
<path d="M43.701 13.5904H42.0556V15.2899H43.701V13.5904Z" fill="#2A97FF"/>
</svg>
