<svg width="100%" height="auto" viewBox="0 0 895 681" fill="none" xmlns="http://www.w3.org/2000/svg">
<g id="imgInicio">
<g id="nubes">
<path id="nube1" d="M834.168 242.436C835.081 240.225 835.219 237.77 834.558 235.472C833.897 233.173 832.476 231.166 830.528 229.779C828.579 228.392 826.218 227.707 823.831 227.836C821.443 227.965 819.169 228.899 817.381 230.487C818.905 226.923 819.074 222.924 817.854 219.243C816.634 215.563 814.111 212.456 810.76 210.509C807.408 208.561 803.46 207.906 799.66 208.669C795.86 209.431 792.469 211.558 790.128 214.648C787.105 206.65 781.271 200.029 773.718 196.025C766.165 192.02 757.412 190.907 749.098 192.893C740.783 194.879 733.478 199.829 728.55 206.816C723.622 213.802 721.409 222.346 722.325 230.847C720.112 228.093 716.945 226.271 713.452 225.744C709.959 225.216 706.396 226.021 703.468 227.999C700.541 229.977 698.464 232.983 697.649 236.421C696.834 239.859 697.341 243.478 699.069 246.56L680.041 251.593H847.064L834.168 242.436Z" fill="#4CB0E9"/>
<path id="nube2" d="M152.943 238.883C154.355 234.808 154.875 230.477 154.467 226.184C154.058 221.89 152.731 217.735 150.576 214C148.421 210.265 145.487 207.037 141.975 204.535C138.463 202.034 134.454 200.317 130.22 199.502C125.986 198.687 121.626 198.792 117.436 199.811C113.247 200.83 109.325 202.738 105.938 205.406C102.55 208.074 99.7762 211.44 97.8037 215.275C95.8312 219.11 94.7065 223.324 94.5058 227.632C94.2593 225.626 93.2359 223.797 91.6555 222.537C90.075 221.277 88.0636 220.688 86.0535 220.896C84.0434 221.104 82.1949 222.092 80.9053 223.648C79.6156 225.204 78.9877 227.204 79.1565 229.218C78.6331 226.962 77.6706 224.831 76.3238 222.946C74.977 221.062 73.2723 219.462 71.3071 218.236C69.3419 217.011 67.1547 216.185 64.8702 215.805C62.5858 215.425 60.249 215.499 57.9931 216.022C55.7373 216.546 53.6066 217.509 51.7227 218.856C49.8388 220.203 48.2387 221.908 47.0136 223.874C45.7886 225.839 44.9626 228.027 44.5828 230.312C44.2031 232.597 44.277 234.935 44.8003 237.191L13.7847 243.282H176.58L152.943 238.883Z" fill="#4CB0E9"/>
<path id="nube3" d="M215.799 86.557C216.713 84.3466 216.851 81.8915 216.189 79.5928C215.528 77.294 214.108 75.2873 212.159 73.9005C210.211 72.5137 207.85 71.8286 205.462 71.9573C203.074 72.0859 200.8 73.0205 199.012 74.6086C200.551 71.0422 200.731 67.0351 199.516 63.3454C198.302 59.6556 195.777 56.5391 192.42 54.5855C189.063 52.6318 185.107 51.9765 181.3 52.7436C177.493 53.5106 174.099 55.6468 171.76 58.7479C168.736 50.7502 162.902 44.1291 155.349 40.1246C147.796 36.1201 139.043 35.0068 130.729 36.9932C122.415 38.9796 115.109 43.9294 110.181 50.9158C105.253 57.9022 103.04 66.4459 103.956 74.947C101.739 72.2117 98.5779 70.4064 95.0958 69.887C91.6138 69.3676 88.0635 70.1718 85.1449 72.141C82.2263 74.1103 80.151 77.1017 79.3283 80.5256C78.5055 83.9495 78.9948 87.5576 80.6999 90.6385L61.6719 95.6927H228.696L215.799 86.557Z" fill="#4CB0E9"/>
<path id="nube4" d="M670.886 100.641C672.297 96.5674 672.817 92.2376 672.408 87.9455C672 83.6533 670.674 79.4991 668.52 75.7646C666.365 72.0301 663.433 68.8027 659.923 66.3011C656.412 63.7995 652.404 62.0823 648.172 61.266C643.939 60.4496 639.581 60.5531 635.392 61.5695C631.203 62.5859 627.281 64.4914 623.893 67.1569C620.505 69.8223 617.73 73.1853 615.755 77.0179C613.78 80.8504 612.653 85.0629 612.449 89.3696C612.137 87.4216 611.091 85.6669 609.526 84.466C607.962 83.2651 605.997 82.709 604.035 82.912C602.073 83.115 600.263 84.0616 598.977 85.5576C597.691 87.0535 597.027 88.9851 597.121 90.9557C596.661 88.634 595.739 86.4285 594.41 84.4703C593.081 82.512 591.372 80.841 589.385 79.5565C587.397 78.2719 585.172 77.4001 582.841 76.9929C580.51 76.5857 578.121 76.6513 575.816 77.1859C573.511 77.7205 571.337 78.7131 569.423 80.1048C567.509 81.4964 565.894 83.2588 564.675 85.287C563.455 87.3153 562.656 89.5681 562.324 91.9115C561.992 94.2549 562.135 96.6411 562.743 98.9283L531.728 105.019H694.523L670.886 100.641Z" fill="#4CB0E9"/>
<path id="nube5" d="M453.903 124.305C454.569 123.271 455.011 122.108 455.201 120.893C455.392 119.677 455.327 118.435 455.01 117.246C454.693 116.057 454.131 114.948 453.361 113.988C452.591 113.029 451.629 112.241 450.537 111.675C449.445 111.109 448.247 110.777 447.019 110.701C445.791 110.624 444.561 110.805 443.407 111.232C442.253 111.658 441.201 112.321 440.318 113.177C439.435 114.034 438.741 115.065 438.279 116.206C436.654 109.635 432.978 103.753 427.786 99.4136C422.593 95.0737 416.152 92.5015 409.399 92.0702C402.646 91.6389 395.931 93.3709 390.229 97.0149C384.526 100.659 380.133 106.025 377.685 112.336C375.127 105.992 364.662 105.23 361.237 111.152C360.751 109.186 359.824 107.357 358.525 105.804C357.226 104.251 355.589 103.016 353.74 102.191C351.891 101.367 349.879 100.976 347.856 101.047C345.833 101.119 343.853 101.651 342.067 102.604C340.281 103.557 338.736 104.906 337.55 106.546C336.364 108.187 335.568 110.077 335.222 112.072C334.877 114.067 334.992 116.115 335.558 118.059C336.124 120.003 337.126 121.792 338.488 123.29L320.157 129.698H472.381L453.903 124.305Z" fill="#4CB0E9"/>
</g>
<g id="OBJECTS">
<path id="Vector" d="M0 680.021H848.713C848.713 680.021 935.101 451.902 869.285 432.7C803.469 413.498 781.523 573.945 781.523 573.945C781.523 573.945 840.722 267.496 711.754 288.453C582.786 309.41 687.504 569.906 687.504 569.906C687.504 569.906 610.609 254.892 409.504 298.54C208.399 342.189 239.309 514.563 239.309 514.563C239.309 514.563 156.305 280.184 49.3671 329.014C-57.5704 377.844 179.73 539.094 179.73 539.094C179.73 539.094 50.7625 493.034 34.2927 547.891C17.8229 602.748 159.328 621.59 159.328 621.59C159.328 621.59 98.7343 621.506 0 680.021Z" fill="#4CB0E9"/>
<path id="Vector_2" d="M608.728 680.021H285.251C283.148 680.021 281.065 679.606 279.122 678.801C277.179 677.995 275.413 676.814 273.927 675.325C272.44 673.836 271.262 672.069 270.459 670.124C269.656 668.179 269.244 666.095 269.247 663.991V16.0299C269.244 13.9258 269.656 11.8418 270.459 9.89709C271.262 7.95239 272.44 6.1851 273.927 4.69631C275.413 3.20752 277.179 2.02644 279.122 1.22061C281.065 0.414774 283.148 -1.83585e-06 285.251 0H608.728C610.831 -1.83585e-06 612.914 0.414774 614.857 1.22061C616.8 2.02644 618.566 3.20752 620.052 4.69631C621.539 6.1851 622.717 7.95239 623.52 9.89709C624.323 11.8418 624.735 13.9258 624.732 16.0299V663.991C624.735 666.095 624.323 668.179 623.52 670.124C622.717 672.069 621.539 673.836 620.052 675.325C618.566 676.814 616.8 677.995 614.857 678.801C612.914 679.606 610.831 680.021 608.728 680.021ZM609.256 621.506V31.2561C609.256 27.7263 607.856 24.3407 605.363 21.8428C602.869 19.3449 599.487 17.9387 595.958 17.9331H298.063C294.535 17.9387 291.152 19.3449 288.659 21.8428C286.165 24.3407 284.765 27.7263 284.765 31.2561V621.506C284.765 623.253 285.109 624.982 285.777 626.596C286.446 628.21 287.425 629.677 288.66 630.912C289.895 632.147 291.361 633.127 292.974 633.795C294.588 634.464 296.317 634.808 298.063 634.808H595.958C597.704 634.808 599.433 634.464 601.047 633.795C602.66 633.127 604.126 632.147 605.361 630.912C606.596 629.677 607.576 628.21 608.244 626.596C608.912 624.982 609.256 623.253 609.256 621.506Z" fill="#0F4C75"/>
<path id="Vector_3" d="M284.765 361.623V622.584C284.765 625.812 286.041 628.908 288.314 631.198C290.588 633.488 293.674 634.785 296.901 634.808H597.121C600.362 634.808 603.47 633.52 605.762 631.228C608.053 628.935 609.341 625.826 609.341 622.584V393.197C564.942 329.352 499.697 276.885 409.589 296.489C349.756 309.452 310.453 333.814 284.765 361.623Z" fill="#4CB0E9"/>
<text id="Genera turnos de manera r&#195;&#161;pida y sencilla" fill="white" xml:space="preserve" style="white-space: pre" font-family="Inter" font-size="24" font-weight="600" letter-spacing="0em"><tspan x="298.906" y="462.227">Genera turnos de manera   &#10;</tspan><tspan x="361.309" y="491.227">r&#xe1;pida y sencilla</tspan></text>
<path id="Vector_4" d="M597.12 17.8274H296.9C295.294 17.8274 293.703 18.1443 292.219 18.7599C290.735 19.3755 289.387 20.2777 288.252 21.415C287.117 22.5523 286.217 23.9022 285.604 25.3877C284.991 26.8731 284.677 28.4649 284.68 30.0718V46.0594H609.256V30.1776C609.273 28.5688 608.972 26.9726 608.37 25.4805C607.769 23.9883 606.879 22.6296 605.752 21.4822C604.624 20.3348 603.281 19.4213 601.8 18.7941C600.319 18.167 598.729 17.8384 597.12 17.8274V17.8274Z" fill="#64D0E3"/>
<path id="Vector_5" d="M534.793 45.1712H359.312C356.327 45.1508 353.439 44.1067 351.13 42.2131C348.821 40.3195 347.232 37.691 346.627 34.7666L342.948 17.0449H551.242L547.563 34.7666C546.955 37.7052 545.353 40.3444 543.027 42.2397C540.701 44.1349 537.793 45.1702 534.793 45.1712V45.1712Z" fill="#0F4C75"/>
<path id="Vector_6" d="M411.301 235.394H345.972V170.048H411.301V235.394ZM355.084 226.279H402.189V179.162H355.084V226.279Z" fill="#263238"/>
<path id="Vector_7" d="M391.555 189.799H365.719V215.642H391.555V189.799Z" fill="#263238"/>
<path id="Vector_8" d="M411.301 372.176H345.972V306.83H411.301V372.176ZM355.084 363.061H402.189V315.945H355.084V363.061Z" fill="#263238"/>
<path id="Vector_9" d="M391.555 326.582H365.719V352.424H391.555V326.582Z" fill="#263238"/>
<path id="Vector_10" d="M548.049 235.394H482.72V170.048H548.049V235.394ZM491.832 226.279H538.937V179.162H491.832V226.279Z" fill="#263238"/>
<path id="Vector_11" d="M528.704 189.376H502.044V216.044H528.704V189.376Z" fill="#263238"/>
<path id="Vector_12" d="M431.788 174.594H421.64V184.745H431.788V174.594Z" fill="#263238"/>
<path id="Vector_13" d="M441.936 184.766H431.788V194.917H441.936V184.766Z" fill="#263238"/>
<path id="Vector_14" d="M452.085 184.766H441.937V194.917H452.085V184.766Z" fill="#263238"/>
<path id="Vector_15" d="M441.936 194.917H431.788V205.068H441.936V194.917Z" fill="#263238"/>
<path id="Vector_16" d="M431.788 215.219H421.64V225.37H431.788V215.219Z" fill="#263238"/>
<path id="Vector_17" d="M441.936 215.219H431.788V225.37H441.936V215.219Z" fill="#263238"/>
<path id="Vector_18" d="M452.085 215.219H441.937V225.37H452.085V215.219Z" fill="#263238"/>
<path id="Vector_19" d="M462.254 215.219H452.106V225.37H462.254V215.219Z" fill="#263238"/>
<path id="Vector_20" d="M462.254 205.068H452.106V215.219H462.254V205.068Z" fill="#263238"/>
<path id="Vector_21" d="M472.402 194.917H462.254V205.068H472.402V194.917Z" fill="#263238"/>
<path id="Vector_22" d="M462.254 174.594H452.106V184.745H462.254V174.594Z" fill="#263238"/>
<path id="Vector_23" d="M472.402 184.766H462.254V194.917H472.402V184.766Z" fill="#263238"/>
<path id="Vector_24" d="M472.402 215.219H462.254V225.37H472.402V215.219Z" fill="#263238"/>
<path id="Vector_25" d="M472.402 225.391H462.254V235.542H472.402V225.391Z" fill="#263238"/>
<path id="Vector_26" d="M421.64 245.692H411.492V255.843H421.64V245.692Z" fill="#263238"/>
<path id="Vector_27" d="M411.471 245.692H401.322V255.843H411.471V245.692Z" fill="#263238"/>
<path id="Vector_28" d="M401.322 245.692H391.174V255.843H401.322V245.692Z" fill="#263238"/>
<path id="Vector_29" d="M381.026 245.692H370.877V255.843H381.026V245.692Z" fill="#263238"/>
<path id="Vector_30" d="M360.708 245.692H350.56V255.843H360.708V245.692Z" fill="#263238"/>
<path id="Vector_31" d="M381.026 276.166H370.877V286.317H381.026V276.166Z" fill="#263238"/>
<path id="Vector_32" d="M381.026 286.317H370.877V296.468H381.026V286.317Z" fill="#263238"/>
<path id="Vector_33" d="M391.174 286.317H381.025V296.468H391.174V286.317Z" fill="#263238"/>
<path id="Vector_34" d="M401.322 286.317H391.174V296.468H401.322V286.317Z" fill="#263238"/>
<path id="Vector_35" d="M411.471 286.317H401.322V296.468H411.471V286.317Z" fill="#263238"/>
<path id="Vector_36" d="M411.471 276.166H401.322V286.317H411.471V276.166Z" fill="#263238"/>
<path id="Vector_37" d="M411.471 266.015H401.322V276.166H411.471V266.015Z" fill="#263238"/>
<path id="Vector_38" d="M421.64 266.015H411.492V276.166H421.64V266.015Z" fill="#263238"/>
<path id="Vector_39" d="M431.788 286.317H421.64V296.468H431.788V286.317Z" fill="#263238"/>
<path id="Vector_40" d="M431.788 276.166H421.64V286.317H431.788V276.166Z" fill="#263238"/>
<path id="Vector_41" d="M441.936 276.166H431.788V286.317H441.936V276.166Z" fill="#263238"/>
<path id="Vector_42" d="M452.085 276.166H441.937V286.317H452.085V276.166Z" fill="#263238"/>
<path id="Vector_43" d="M462.254 276.166H452.106V286.317H462.254V276.166Z" fill="#263238"/>
<path id="Vector_44" d="M472.402 286.317H462.254V296.468H472.402V286.317Z" fill="#263238"/>
<path id="Vector_45" d="M472.402 296.468H462.254V306.619H472.402V296.468Z" fill="#263238"/>
<path id="Vector_46" d="M482.551 306.64H472.402V316.791H482.551V306.64Z" fill="#263238"/>
<path id="Vector_47" d="M421.64 286.317H411.492V296.468H421.64V286.317Z" fill="#263238"/>
<path id="Vector_48" d="M370.856 276.166H360.708V286.317H370.856V276.166Z" fill="#263238"/>
<path id="Vector_49" d="M391.174 255.843H381.025V265.994H391.174V255.843Z" fill="#263238"/>
<path id="Vector_50" d="M391.174 266.015H381.025V276.166H391.174V266.015Z" fill="#263238"/>
<path id="Vector_51" d="M381.026 266.015H370.877V276.166H381.026V266.015Z" fill="#263238"/>
<path id="Vector_52" d="M370.856 266.015H360.708V276.166H370.856V266.015Z" fill="#263238"/>
<path id="Vector_53" d="M370.856 255.843H360.708V265.994H370.856V255.843Z" fill="#263238"/>
<path id="Vector_54" d="M360.708 266.015H350.56V276.166H360.708V266.015Z" fill="#263238"/>
<path id="Vector_55" d="M431.788 205.068H421.64V215.219H431.788V205.068Z" fill="#263238"/>
<path id="Vector_56" d="M431.788 225.391H421.64V235.542H431.788V225.391Z" fill="#263238"/>
<path id="Vector_57" d="M431.788 235.542H421.64V245.692H431.788V235.542Z" fill="#263238"/>
<path id="Vector_58" d="M431.788 245.692H421.64V255.843H431.788V245.692Z" fill="#263238"/>
<path id="Vector_59" d="M431.788 255.843H421.64V265.994H431.788V255.843Z" fill="#263238"/>
<path id="Vector_60" d="M441.936 255.843H431.788V265.994H441.936V255.843Z" fill="#263238"/>
<path id="Vector_61" d="M452.085 255.843H441.937V265.994H452.085V255.843Z" fill="#263238"/>
<path id="Vector_62" d="M462.254 255.843H452.106V265.994H462.254V255.843Z" fill="#263238"/>
<path id="Vector_63" d="M452.085 245.692H441.937V255.843H452.085V245.692Z" fill="#263238"/>
<path id="Vector_64" d="M472.402 245.692H462.254V255.843H472.402V245.692Z" fill="#263238"/>
<path id="Vector_65" d="M482.551 245.692H472.402V255.843H482.551V245.692Z" fill="#263238"/>
<path id="Vector_66" d="M492.699 245.692H482.551V255.843H492.699V245.692Z" fill="#263238"/>
<path id="Vector_67" d="M502.869 245.692H492.72V255.843H502.869V245.692Z" fill="#263238"/>
<path id="Vector_68" d="M513.016 245.692H502.868V255.843H513.016V245.692Z" fill="#263238"/>
<path id="Vector_69" d="M523.165 245.692H513.017V255.843H523.165V245.692Z" fill="#263238"/>
<path id="Vector_70" d="M523.165 255.843H513.017V265.994H523.165V255.843Z" fill="#263238"/>
<path id="Vector_71" d="M492.699 266.015H482.551V276.166H492.699V266.015Z" fill="#263238"/>
<path id="Vector_72" d="M482.551 266.015H472.402V276.166H482.551V266.015Z" fill="#263238"/>
<path id="Vector_73" d="M482.551 255.843H472.402V265.994H482.551V255.843Z" fill="#263238"/>
<path id="Vector_74" d="M472.402 266.015H462.254V276.166H472.402V266.015Z" fill="#263238"/>
<path id="Vector_75" d="M513.016 276.166H502.868V286.317H513.016V276.166Z" fill="#263238"/>
<path id="Vector_76" d="M513.016 286.317H502.868V296.468H513.016V286.317Z" fill="#263238"/>
<path id="Vector_77" d="M523.165 286.317H513.017V296.468H523.165V286.317Z" fill="#263238"/>
<path id="Vector_78" d="M533.313 286.317H523.165V296.468H533.313V286.317Z" fill="#263238"/>
<path id="Vector_79" d="M533.313 296.468H523.165V306.619H533.313V296.468Z" fill="#263238"/>
<path id="Vector_80" d="M533.313 306.64H523.165V316.791H533.313V306.64Z" fill="#263238"/>
<path id="Vector_81" d="M513.016 316.791H502.868V326.941H513.016V316.791Z" fill="#263238"/>
<path id="Vector_82" d="M513.016 347.328H502.868V357.478H513.016V347.328Z" fill="#263238"/>
<path id="Vector_83" d="M543.483 316.791H533.334V326.941H543.483V316.791Z" fill="#263238"/>
<path id="Vector_84" d="M543.483 357.415H533.334V367.566H543.483V357.415Z" fill="#263238"/>
<path id="Vector_85" d="M502.869 357.415H492.72V367.566H502.869V357.415Z" fill="#263238"/>
<path id="Vector_86" d="M492.699 357.415H482.551V367.566H492.699V357.415Z" fill="#263238"/>
<path id="Vector_87" d="M482.551 357.415H472.402V367.566H482.551V357.415Z" fill="#263238"/>
<path id="Vector_88" d="M472.402 357.415H462.254V367.566H472.402V357.415Z" fill="#263238"/>
<path id="Vector_89" d="M482.551 347.243H472.402V357.394H482.551V347.243Z" fill="#263238"/>
<path id="Vector_90" d="M472.402 347.243H462.254V357.394H472.402V347.243Z" fill="#263238"/>
<path id="Vector_91" d="M482.551 337.092H472.402V347.243H482.551V337.092Z" fill="#263238"/>
<path id="Vector_92" d="M482.551 326.941H472.402V337.092H482.551V326.941Z" fill="#263238"/>
<path id="Vector_93" d="M472.402 316.791H462.254V326.941H472.402V316.791Z" fill="#263238"/>
<path id="Vector_94" d="M462.254 316.791H452.106V326.941H462.254V316.791Z" fill="#263238"/>
<path id="Vector_95" d="M452.085 316.791H441.937V326.941H452.085V316.791Z" fill="#263238"/>
<path id="Vector_96" d="M441.936 316.791H431.788V326.941H441.936V316.791Z" fill="#263238"/>
<path id="Vector_97" d="M462.254 326.941H452.106V337.092H462.254V326.941Z" fill="#263238"/>
<path id="Vector_98" d="M452.085 326.941H441.937V337.092H452.085V326.941Z" fill="#263238"/>
<path id="Vector_99" d="M431.788 347.243H421.64V357.394H431.788V347.243Z" fill="#263238"/>
<path id="Vector_100" d="M431.788 306.64H421.64V316.791H431.788V306.64Z" fill="#263238"/>
<path id="Vector_101" d="M441.936 326.941H431.788V337.092H441.936V326.941Z" fill="#263238"/>
<path id="Vector_102" d="M452.085 337.092H441.937V347.243H452.085V337.092Z" fill="#263238"/>
<path id="Vector_103" d="M441.936 337.092H431.788V347.243H441.936V337.092Z" fill="#263238"/>
<path id="Vector_104" d="M452.085 347.243H441.937V357.394H452.085V347.243Z" fill="#263238"/>
<path id="Vector_105" d="M441.936 357.415H431.788V367.566H441.936V357.415Z" fill="#263238"/>
<path id="Vector_106" d="M462.254 306.64H452.106V316.791H462.254V306.64Z" fill="#263238"/>
<path id="Vector_107" d="M452.085 306.64H441.937V316.791H452.085V306.64Z" fill="#263238"/>
<path id="Vector_108" d="M441.936 306.64H431.788V316.791H441.936V306.64Z" fill="#263238"/>
<path id="Vector_109" d="M452.085 296.468H441.937V306.619H452.085V296.468Z" fill="#263238"/>
<path id="Vector_110" d="M452.085 286.317H441.937V296.468H452.085V286.317Z" fill="#263238"/>
<path id="Vector_111" d="M441.936 296.468H431.788V306.619H441.936V296.468Z" fill="#263238"/>
<path id="Vector_112" d="M431.788 316.791H421.64V326.941H431.788V316.791Z" fill="#263238"/>
<path id="Vector_113" d="M472.402 337.092H462.254V347.243H472.402V337.092Z" fill="#263238"/>
<path id="Vector_114" d="M462.254 357.415H452.106V367.566H462.254V357.415Z" fill="#263238"/>
<path id="Vector_115" d="M492.699 316.791H482.551V326.941H492.699V316.791Z" fill="#263238"/>
<path id="Vector_116" d="M502.869 326.941H492.72V337.092H502.869V326.941Z" fill="#263238"/>
<path id="Vector_117" d="M533.313 326.941H523.165V337.092H533.313V326.941Z" fill="#263238"/>
<path id="Vector_118" d="M533.313 337.092H523.165V347.243H533.313V337.092Z" fill="#263238"/>
<path id="Vector_119" d="M523.165 337.092H513.017V347.243H523.165V337.092Z" fill="#263238"/>
<path id="Vector_120" d="M513.016 337.092H502.868V347.243H513.016V337.092Z" fill="#263238"/>
<path id="Vector_121" d="M502.869 337.092H492.72V347.243H502.869V337.092Z" fill="#263238"/>
<path id="Vector_122" d="M533.313 347.243H523.165V357.394H533.313V347.243Z" fill="#263238"/>
<path id="Vector_123" d="M533.313 357.415H523.165V367.566H533.313V357.415Z" fill="#263238"/>
<path id="Vector_124" d="M513.016 296.468H502.868V306.619H513.016V296.468Z" fill="#263238"/>
<path id="Vector_125" d="M502.869 276.166H492.72V286.317H502.869V276.166Z" fill="#263238"/>
<path id="Vector_126" d="M502.869 286.317H492.72V296.468H502.869V286.317Z" fill="#263238"/>
<path id="Vector_127" d="M502.869 296.468H492.72V306.619H502.869V296.468Z" fill="#263238"/>
<path id="Vector_128" d="M492.699 306.64H482.551V316.791H492.699V306.64Z" fill="#263238"/>
<path id="Vector_129" d="M492.699 286.317H482.551V296.468H492.699V286.317Z" fill="#263238"/>
<path id="Vector_130" d="M492.699 296.468H482.551V306.619H492.699V296.468Z" fill="#263238"/>
<path id="Vector_131" d="M513.016 266.015H502.868V276.166H513.016V266.015Z" fill="#263238"/>
<path id="Vector_132" d="M513.016 306.64H502.868V316.791H513.016V306.64Z" fill="#263238"/>
<path id="Vector_133" d="M523.165 306.64H513.017V316.791H523.165V306.64Z" fill="#263238"/>
<path id="Vector_134" d="M533.313 255.843H523.165V265.994H533.313V255.843Z" fill="#263238"/>
<path id="Vector_135" d="M533.313 266.015H523.165V276.166H533.313V266.015Z" fill="#263238"/>
<path id="Vector_136" d="M543.483 245.692H533.334V255.843H543.483V245.692Z" fill="#263238"/>
<path id="Vector_137" d="M543.483 276.166H533.334V286.317H543.483V276.166Z" fill="#263238"/>
<path id="Vector_138" d="M452.085 235.542H441.937V245.692H452.085V235.542Z" fill="#263238"/>
<path id="Vector_139" d="M462.254 235.542H452.106V245.692H462.254V235.542Z" fill="#263238"/>
<path id="Vector_140" d="M334.745 189.271H326.352V154.525H361.088V162.921H334.745V189.271Z" fill="#64D0E3"/>
<path id="Vector_141" d="M361.088 387.677H326.352V352.932H334.745V379.282H361.088V387.677Z" fill="#64D0E3"/>
<path id="Vector_142" d="M567.648 387.677H532.912V379.282H559.255V352.932H567.648V387.677Z" fill="#64D0E3"/>
<path id="Vector_143" d="M567.648 189.271H559.255V162.921H532.912V154.525H567.648V189.271Z" fill="#64D0E3"/>
<path id="Vector_144" d="M598.452 36.1412H582.807V27.6822H598.452V36.1412ZM583.653 35.4645H597.691V28.3166H583.653V35.4645Z" fill="white"/>
<path id="Vector_145" d="M586.93 29.2048H584.414V34.5551H586.93V29.2048Z" fill="white"/>
<path id="Vector_146" d="M590.186 29.2048H587.67V34.5551H590.186V29.2048Z" fill="white"/>
<path id="Vector_147" d="M593.463 29.2048H590.947V34.5551H593.463V29.2048Z" fill="white"/>
<path id="Vector_148" d="M600.567 29.2048H598.051V34.5551H600.567V29.2048Z" fill="white"/>
<path id="Vector_149" d="M562.067 31.8905H559.91V36.1412H562.067V31.8905Z" fill="white"/>
<path id="Vector_150" d="M565.534 30.6005H563.377V36.1412H565.534V30.6005Z" fill="white"/>
<path id="Vector_151" d="M568.98 29.0356H566.824V36.12H568.98V29.0356Z" fill="white"/>
<path id="Vector_152" d="M572.448 27.6399H570.291V36.1412H572.448V27.6399Z" fill="white"/>
<text id="4.20 PM" fill="white" xml:space="preserve" style="white-space: pre" font-family="Inter" font-size="3.63" letter-spacing="0em"><tspan x="301.446" y="30.1986">4.20 PM</tspan></text>
<path id="Vector_153" d="M490.098 34.5551H403.965C403.051 34.5551 402.174 34.1919 401.528 33.5455C400.882 32.899 400.519 32.0223 400.519 31.1081V31.1081C400.516 30.6536 400.603 30.2031 400.775 29.7824C400.947 29.3618 401.2 28.9793 401.521 28.6569C401.841 28.3346 402.222 28.0788 402.641 27.9043C403.061 27.7297 403.51 27.6399 403.965 27.6399H490.098C490.553 27.6399 491.003 27.7297 491.422 27.9043C491.842 28.0788 492.222 28.3346 492.543 28.6569C492.863 28.9793 493.116 29.3618 493.288 29.7824C493.46 30.2031 493.547 30.6536 493.545 31.1081V31.1081C493.545 32.0223 493.181 32.899 492.535 33.5455C491.889 34.1919 491.012 34.5551 490.098 34.5551V34.5551Z" fill="white"/>
<path id="Vector_154" d="M514.898 31.1081C514.898 31.794 514.695 32.4645 514.314 33.0349C513.933 33.6052 513.392 34.0498 512.758 34.3123C512.125 34.5748 511.427 34.6435 510.755 34.5096C510.082 34.3758 509.464 34.0455 508.979 33.5604C508.494 33.0754 508.164 32.4574 508.03 31.7847C507.897 31.1119 507.965 30.4146 508.228 29.7808C508.49 29.1471 508.935 28.6055 509.505 28.2244C510.075 27.8433 510.745 27.6399 511.431 27.6399C511.887 27.6371 512.339 27.7248 512.761 27.8981C513.183 28.0714 513.567 28.3268 513.889 28.6494C514.212 28.972 514.467 29.3555 514.64 29.7775C514.814 30.1996 514.901 30.6518 514.898 31.1081Z" fill="white"/>
<path id="Vector_155" d="M522.784 34.5551C524.699 34.5551 526.252 33.0023 526.252 31.0869C526.252 29.1715 524.699 27.6187 522.784 27.6187C520.869 27.6187 519.317 29.1715 519.317 31.0869C519.317 33.0023 520.869 34.5551 522.784 34.5551Z" fill="white"/>
<path id="Vector_156" d="M731.543 502.466L722.959 657.034L683.085 680.021H752.199L748.414 653.354L760.487 577.223C763.726 556.849 765.352 536.25 765.349 515.62V481.488L731.543 502.466Z" fill="#A0D0F0"/>
<path id="Vector_157" d="M750.74 638.593L724.206 635.844L723.593 645.424L719.449 635.844L712.599 638.741L723.149 653.312L722.959 657.034L683.063 680H752.199L748.393 653.354L750.74 638.593Z" fill="#4CBFD4"/>
<path id="Vector_158" d="M683.148 502.466L674.565 657.034L634.69 680.021H703.826L700.02 653.354L712.092 577.223C715.331 556.849 716.957 536.25 716.955 515.62V481.488L683.148 502.466Z" fill="#BBE1FA"/>
<path id="Vector_159" d="M763.51 325.609C765.836 325.334 771.629 344.198 772.327 346.228C775.836 356.696 778.289 367.714 777.274 378.816C776.344 389.01 772.475 398.864 772.496 409.142C772.496 418.257 776.724 445.093 778.31 454.123C780.657 466.811 783.447 479.289 786.767 491.702C786.767 491.702 755.222 516.233 678.053 503.841L684.121 334.851L763.51 325.609Z" fill="#64D0E3"/>
<g id="Vector_160" style="mix-blend-mode:multiply" opacity="0.7">
<path d="M725.137 406.604C721.987 407.704 718.139 408.381 715.644 406.181C713.149 403.982 713.382 399.71 715.348 397.003C717.557 394.434 720.433 392.524 723.657 391.484C735.208 386.788 747.464 384.065 759.916 383.427C762.293 383.167 764.698 383.404 766.978 384.124C768.135 384.4 769.181 385.021 769.976 385.906C770.772 386.791 771.279 387.897 771.43 389.077C771.582 390.257 771.37 391.456 770.824 392.513C770.278 393.57 769.423 394.435 768.373 394.994C766.416 396.167 764.27 396.99 762.03 397.426C749.852 400.535 736.892 402.523 725.137 406.604Z" fill="#64D0E3"/>
</g>
<path id="Vector_161" d="M689.364 204.793L672.45 212.512C666.481 215.234 661.212 219.283 657.046 224.352C652.88 229.421 649.927 235.375 648.412 241.759L635.621 295.601L626.403 268.659C626.403 268.659 619.045 261.511 609.489 274.665L625.874 333.878C625.874 333.878 635.726 348.258 649.278 344.557C662.831 340.856 670.421 293.528 670.421 293.528C670.421 293.528 676.425 318.123 683.867 334.766C683.867 334.766 725.158 338.995 763.32 325.524C763.32 325.524 755.709 307.549 759.408 272.994C763.108 238.439 744.101 208.24 744.101 208.24L689.364 204.793Z" fill="#0F4C75"/>
<path id="Vector_162" d="M716.912 267.03C717.039 267.326 717.187 267.622 717.314 267.897C720.063 273.628 724.354 279.127 730.443 280.967C737.124 282.976 742.431 278.387 743.615 271.915C744.069 268.639 744.069 265.316 743.615 262.039C742.206 246.912 740.74 231.784 739.217 216.657C738.583 210.059 737.442 202.551 731.923 198.851C728.245 196.397 723.466 196.292 719.111 196.545C714.248 196.799 709.174 197.455 705.221 200.289C695.897 206.929 701.457 221.859 703.741 230.614C706.985 243.138 711.394 255.33 716.912 267.03V267.03Z" fill="#FAC4BB"/>
<path id="Vector_163" d="M669.004 301.945H668.856C657.372 299.58 646.668 294.358 637.735 286.761L635.621 295.77L626.403 268.828C626.403 268.828 619.045 261.68 609.489 274.834L625.874 334.047C625.874 334.047 635.726 348.427 649.278 344.726C659.363 341.914 666.15 315.564 669.004 301.945Z" fill="#FAC4BB"/>
<path id="Vector_164" d="M687.863 152.326C687.863 152.326 677.63 153.722 677.99 144.078C677.99 144.078 667.842 149.513 663.19 144.078C663.19 144.078 662.789 147.483 662.366 152.749C662.133 155.477 661.901 158.691 661.71 162.16C661.52 165.628 661.393 169.392 661.372 173.156C661.182 188.446 662.725 204.222 669.533 205.089C682.874 206.781 688.561 199.823 688.561 199.823C688.286 199.21 680.696 183.349 690.675 170.217C700.654 157.084 687.863 152.326 687.863 152.326Z" fill="#FAC4BB"/>
<path id="Vector_165" d="M638.771 282.362C637.819 292.467 635.464 302.389 631.772 311.842C632.724 301.738 635.079 291.816 638.771 282.362V282.362Z" fill="#263238"/>
<path id="Vector_166" d="M617.672 188.583L595.791 195.112C593.486 195.8 592.175 198.226 592.863 200.532L608.262 252.167C608.949 254.473 611.375 255.784 613.68 255.097L635.561 248.568C637.866 247.88 639.177 245.453 638.49 243.148L623.091 191.512C622.403 189.207 619.977 187.895 617.672 188.583Z" fill="#0F4C75"/>
<path id="Vector_167" d="M618.668 194.674L598.307 200.749C597.602 200.959 597.201 201.701 597.411 202.407L610.665 246.848C610.875 247.553 611.617 247.954 612.322 247.744L632.683 241.668C633.388 241.458 633.789 240.716 633.579 240.011L620.325 195.57C620.115 194.864 619.373 194.463 618.668 194.674Z" fill="white"/>
<path id="Vector_168" d="M609.595 274.643L599.023 240.68C599.023 240.68 619.257 238.122 620.271 226.533C620.271 226.533 628.157 238.714 614.732 243.662C614.732 243.662 627.735 247.723 626.36 268.638L609.595 274.643Z" fill="#FAC4BB"/>
<path id="Vector_169" d="M702.98 634.66L675.812 631.213L675.431 641.215L668.898 631.213L659.976 634.3L674.881 651.303L674.564 657.034L634.669 680H703.804L699.998 653.354L702.98 634.66Z" fill="#64D0E3"/>
<path id="Vector_170" d="M668.159 305.836C668.745 298.738 669.726 291.678 671.097 284.689C672.37 277.685 674.036 270.759 676.087 263.943C675.539 271.02 674.586 278.059 673.233 285.027C671.929 292.052 670.235 298.999 668.159 305.836V305.836Z" fill="white"/>
<path id="Vector_171" d="M683.296 335.062C679.068 341.406 674.67 348.089 673.254 355.618C672.505 359.33 672.709 363.171 673.846 366.783C675.04 370.321 677.347 373.378 680.421 375.496C686.616 379.726 694.375 381.248 701.923 381.946C709.545 382.652 717.225 382.446 724.799 381.333C732.378 380.282 739.803 378.322 746.913 375.496C754.051 372.807 760.594 368.748 766.174 363.548C768.962 360.985 771.218 357.896 772.81 354.46C774.403 351.023 775.302 347.306 775.456 343.521C775.532 339.711 774.44 335.97 772.326 332.799C770.089 329.651 767.043 327.167 763.51 325.609C767.18 326.977 770.389 329.352 772.77 332.461C775.115 335.671 776.414 339.525 776.491 343.5C776.364 351.484 773.071 359.091 767.337 364.647C761.702 370.15 754.994 374.433 747.632 377.23C740.399 380.19 732.83 382.25 725.095 383.363C717.388 384.441 709.581 384.597 701.838 383.828C697.93 383.452 694.062 382.744 690.273 381.714C686.435 380.752 682.808 379.089 679.575 376.807C676.303 374.425 673.886 371.051 672.683 367.185C671.572 363.358 671.463 359.309 672.366 355.427C674.078 347.687 678.751 341.237 683.296 335.062Z" fill="#0F4C75"/>
<path id="Vector_172" d="M684.057 334.851C682.129 336.742 680.881 339.218 680.506 341.893C680.263 344.539 680.647 347.205 681.626 349.675C683.391 354.693 686.873 358.926 691.457 361.623C696 364.368 701.087 366.085 706.363 366.657C711.663 367.24 717.018 367.105 722.283 366.255C732.939 364.955 743.033 360.748 751.459 354.095C755.507 350.578 758.702 346.185 760.801 341.249C762.9 336.314 763.848 330.965 763.574 325.609C764.151 331.059 763.515 336.569 761.713 341.745C759.835 346.976 756.672 351.652 752.516 355.343C743.981 362.405 733.626 366.913 722.642 368.348C717.187 369.159 711.647 369.231 706.172 368.56C700.634 367.939 695.319 366.027 690.654 362.977C685.906 359.966 682.383 355.363 680.717 349.992C679.842 347.35 679.603 344.539 680.019 341.787C680.515 339.075 681.944 336.621 684.057 334.851V334.851Z" fill="#0F4C75"/>
<path id="Vector_173" d="M732.431 164.972C732.431 164.972 749.641 150.592 734.545 117.559C719.45 84.5268 684.311 102.079 684.311 102.079C684.311 102.079 662.535 83.829 646.699 106.309C630.864 128.789 651.287 141.456 651.287 141.456C651.287 141.456 646.382 143.19 646.72 153.722C646.749 154.435 646.848 155.143 647.016 155.836C647.282 156.907 647.796 157.9 648.517 158.734C649.83 160.179 651.546 161.196 653.444 161.652C656.162 162.31 658.976 162.475 661.752 162.138C661.752 161.99 661.752 161.8 661.752 161.652C661.752 160.651 661.816 159.678 661.943 158.734C661.943 157.74 662.07 156.767 662.133 155.836C662.64 148.879 663.211 144.057 663.211 144.057C667.778 149.492 678.011 144.057 678.011 144.057C677.651 153.701 687.884 152.305 687.884 152.305C689.788 153.054 691.474 154.268 692.789 155.836C693.495 156.681 694.007 157.67 694.29 158.734C694.552 159.683 694.638 160.672 694.544 161.652C694.119 164.824 692.774 167.802 690.675 170.217C680.696 183.307 688.286 199.168 688.561 199.823C690.464 205.089 694.058 214.119 697.61 222.832C699.14 226.67 701.497 230.124 704.513 232.948C707.529 235.772 711.13 237.896 715.06 239.17C718.99 240.444 723.152 240.836 727.251 240.319C731.349 239.801 735.284 238.387 738.774 236.176C751.713 227.717 755.687 218.01 755.687 218.01C736.004 199.4 732.431 164.972 732.431 164.972Z" fill="#64D0E3"/>
<path id="Vector_174" d="M662.45 157.296C662.45 158.268 662.281 159.41 662.197 160.404C662.112 161.398 662.07 162.308 662.006 163.323C661.943 164.338 661.879 165.247 661.837 166.241C661.827 166.403 661.827 166.565 661.837 166.727C661.668 170.196 661.52 173.96 661.499 177.724H656.953C648.496 177.724 645.05 171.739 643.612 166.241C643.367 165.281 643.184 164.306 643.063 163.323C642.894 162.265 642.809 161.208 642.746 160.404C642.746 158.543 642.746 157.296 642.746 157.296H662.45Z" fill="#0F4C75"/>
<path id="Vector_175" d="M694.375 158.755H636.677C636.508 157.697 636.424 156.64 636.36 155.858H692.768C693.511 156.692 694.06 157.682 694.375 158.755Z" fill="#0F4C75"/>
<path id="Vector_176" d="M767.612 396.348C760.931 398.23 754.25 399.795 747.59 401.444C740.93 403.094 734.292 404.764 727.505 406.287C733.755 403.271 740.322 400.959 747.083 399.393C753.809 397.704 760.685 396.684 767.612 396.348V396.348Z" fill="#1B262C"/>
<path id="Vector_177" d="M186.728 153.404C186.728 153.404 164.001 153.214 148.672 183.011C132.118 215.176 99.1362 265.021 116.536 286.634C133.936 308.247 167.468 286.634 167.468 286.634L196.644 203.672L186.728 153.404Z" fill="#F2AFA5"/>
<path id="Vector_178" d="M196.602 203.672L186.729 153.404C186.729 153.404 164.001 153.214 148.673 183.011C140.998 197.814 129.814 216.593 121.737 234.505C128.63 237.551 140.448 243.62 144.994 251.085C150.279 259.756 169.963 256.33 180.174 250.387L196.602 203.672Z" fill="#4CBFD4"/>
<path id="Vector_179" d="M129.877 333.265L95.4574 455.011C94.7449 460.263 95.4972 465.61 97.6313 470.462C99.7654 475.313 103.198 479.48 107.551 482.503L241.445 572.232L269.183 641.723V536.577L245.018 535.668L164.275 432.235L236.582 390.236L249.267 362.046L129.877 333.265Z" fill="#0F4C75"/>
<path id="Vector_180" d="M231.698 517.164L209.879 553.157L241.444 572.253L269.162 641.723L269.246 536.577L245.102 535.668L231.698 517.164Z" fill="#F2AFA5"/>
<path id="Vector_181" d="M249.394 362.067L245.927 377.674C242.48 393.091 239.922 396.221 234.256 410.961L141.082 646.989C141.082 646.989 129.877 660.608 103.83 641.406L151.294 334.576C168.64 330.604 186.705 331.039 203.84 335.841C220.975 340.643 236.636 349.659 249.394 362.067Z" fill="#1C6BA1"/>
<path id="Vector_182" d="M103.83 641.406C129.877 660.608 141.082 646.989 141.082 646.989L147.932 629.648L107.445 617.974L103.83 641.406Z" fill="#FAC4BB"/>
<path id="Vector_183" d="M283.708 171.887C283.708 171.887 246.984 146.193 198.251 150.613C149.518 155.033 145.078 239.242 145.078 239.242L129.877 333.264C129.877 333.264 174.276 359.847 249.5 362.067C249.394 362.067 296.055 213.125 283.708 171.887Z" fill="#64D0E3"/>
<path id="Vector_184" d="M149.349 211.01C147.278 219.982 145.864 229.092 145.121 238.27C175.81 251.063 208.865 257.197 242.1 256.266L247.661 229.557C213.939 230.505 180.409 224.179 149.349 211.01V211.01Z" fill="white"/>
<path id="Vector_185" d="M199.646 175.271C201.905 177.33 204.8 178.554 207.85 178.739C213.34 179.242 218.874 178.545 224.069 176.698C229.263 174.85 233.995 171.896 237.935 168.039C239.437 166.663 240.639 164.993 241.466 163.132C242.055 161.87 242.213 160.449 241.915 159.089C241.617 157.728 240.88 156.504 239.817 155.604C238.405 154.653 236.79 154.044 235.102 153.827C226.286 152.284 217.364 155.139 209.731 159.368C205.735 161.483 200.957 164.761 198.949 168.99C198.37 169.972 198.125 171.114 198.251 172.247C198.377 173.379 198.866 174.441 199.646 175.271V175.271Z" fill="#FAC4BB"/>
<path id="Vector_186" d="M237.195 138.517V158.416C234.047 162.203 229.946 165.079 225.315 166.749C220.683 168.418 215.69 168.82 210.852 167.912L208.103 143.571L237.195 138.517Z" fill="#FAC4BB"/>
<path id="Vector_187" d="M163.218 285.133L134.676 291.942C134.003 292.107 133.295 292.043 132.663 291.76C132.031 291.476 131.511 290.99 131.187 290.377L99.7912 232.158C99.5605 231.729 99.433 231.253 99.4188 230.766C99.4046 230.279 99.5041 229.796 99.7094 229.355C99.9146 228.913 100.22 228.526 100.601 228.223C100.982 227.921 101.429 227.711 101.905 227.611L130.447 220.781C131.12 220.619 131.827 220.685 132.458 220.968C133.09 221.251 133.609 221.736 133.936 222.346L165.332 280.501C165.575 280.934 165.713 281.418 165.734 281.914C165.754 282.409 165.658 282.903 165.452 283.354C165.246 283.806 164.936 284.202 164.548 284.511C164.16 284.82 163.704 285.033 163.218 285.133V285.133Z" fill="#0F4C75"/>
<path id="Vector_188" d="M164.593 110.454C164.593 110.454 148.038 105.442 151.463 88.1219C154.888 70.8021 178.504 71.7325 178.504 71.7325C178.504 71.7325 204.594 53.6725 226.645 65.3883C226.645 65.3883 251.36 62.4276 251.572 92.0131C251.783 121.599 243.115 127.604 243.115 127.604L164.593 110.454Z" fill="#64D0E3"/>
<path id="Vector_189" d="M164.846 115.466C165.329 125.459 166.816 135.378 169.286 145.072C172.711 158.268 178.504 172.564 187.405 171.19C203.558 168.673 226.772 161.06 233.157 143.148C233.157 143.148 246.35 141.181 246.772 124.432C247.195 107.683 231.635 113.203 231.635 113.203C230.854 118.194 230.395 123.231 230.26 128.281C230.26 128.281 227.871 106.52 220.767 101.741L224.235 94.2759C219.189 90.9557 213.38 88.9782 207.357 88.5305C201.334 88.0827 195.296 89.1795 189.815 91.717C170.512 100.43 164 98.6111 164 98.6111L164.846 115.466Z" fill="#FAC4BB"/>
<path id="Vector_190" d="M262.481 163.915C262.481 163.915 297.937 163.915 295.717 205.998C294.279 233.342 282.545 287.015 277.133 308.078C276.472 310.652 275.311 313.071 273.716 315.197C272.12 317.323 270.122 319.113 267.835 320.466C265.547 321.819 263.016 322.708 260.385 323.083C257.755 323.457 255.076 323.31 252.502 322.648C225.943 315.749 200.46 305.224 176.771 291.371C176.771 291.371 156.833 311.313 139.095 298.033C139.095 298.033 119.158 295.812 121.378 278.09C121.378 278.09 114.739 275.87 116.959 264.789C116.959 264.789 154.085 272.042 152.901 257.725C152.901 257.725 172.331 249.266 181.189 264.789C181.189 264.789 209.985 266.903 225.588 269.23L240.388 188.277C240.388 188.277 242.544 161.694 262.481 163.915Z" fill="#FAC4BB"/>
<path id="Vector_191" d="M207.088 267.39C214.758 266.896 222.459 267.379 230.007 268.828C233.787 269.566 237.516 270.548 241.17 271.767C244.808 273.02 248.297 274.673 251.572 276.695C247.956 275.405 244.341 274.326 240.683 273.353C237.026 272.381 233.326 271.619 229.605 270.921C225.884 270.224 222.163 269.61 218.399 269.018L207.088 267.39Z" fill="#263238"/>
<path id="Vector_192" d="M295.717 206.02C297.936 163.915 262.481 163.915 262.481 163.915C242.544 161.8 240.345 188.277 240.345 188.277L228.801 251.191C228.801 251.191 262.312 253.517 285.357 272.063C290.135 249.076 294.786 222.684 295.717 206.02Z" fill="#64D0E3"/>
<path id="Vector_193" d="M130.871 232.835C130.871 233.434 130.694 234.02 130.362 234.52C130.03 235.019 129.558 235.409 129.005 235.642C128.453 235.874 127.844 235.938 127.255 235.825C126.666 235.713 126.124 235.429 125.696 235.009C125.268 234.59 124.973 234.053 124.848 233.467C124.724 232.88 124.775 232.27 124.996 231.713C125.216 231.155 125.597 230.675 126.089 230.333C126.581 229.991 127.164 229.802 127.763 229.789C128.167 229.784 128.569 229.858 128.944 230.009C129.32 230.159 129.662 230.382 129.95 230.665C130.239 230.948 130.469 231.286 130.627 231.658C130.785 232.03 130.868 232.43 130.871 232.835V232.835Z" fill="white"/>
<path id="Vector_194" d="M228.654 151.226C234.362 142.196 227.66 114.916 227.597 114.662C227.597 114.662 206.729 140.42 201.274 141.942C195.82 143.465 189.414 139.722 184.953 140.927C180.492 142.133 178.61 145.559 175.692 146.235C173.511 146.502 171.301 146.104 169.35 145.093C172.775 158.29 178.568 172.585 187.469 171.211C200.894 169.096 219.224 163.428 228.654 151.226Z" fill="#55BBCF"/>
<path id="Vector_195" d="M183.007 151.078L192.564 148.689L189.752 156.111L183.007 151.078Z" fill="white"/>
<path id="Vector_196" d="M183.578 129.888C184.444 132.188 184.957 134.605 185.1 137.057C185.196 138.282 185.196 139.512 185.1 140.737C184.999 141.971 184.736 143.187 184.318 144.353C184.318 141.9 184.318 139.532 184.086 137.121C183.853 134.71 183.684 132.341 183.578 129.888Z" fill="#263238"/>
<path id="Vector_197" d="M198.843 127.562C198.839 128.239 198.634 128.899 198.255 129.46C197.876 130.02 197.34 130.456 196.714 130.712C196.088 130.968 195.4 131.033 194.737 130.898C194.074 130.764 193.465 130.436 192.988 129.956C192.512 129.476 192.187 128.866 192.057 128.202C191.927 127.538 191.996 126.85 192.255 126.225C192.515 125.6 192.954 125.067 193.517 124.691C194.08 124.315 194.741 124.115 195.418 124.115C196.328 124.121 197.199 124.486 197.841 125.132C198.483 125.778 198.843 126.652 198.843 127.562V127.562Z" fill="#263238"/>
<path id="Vector_198" d="M175.015 135.937C176.907 135.937 178.44 134.403 178.44 132.511C178.44 130.619 176.907 129.085 175.015 129.085C173.124 129.085 171.59 130.619 171.59 132.511C171.59 134.403 173.124 135.937 175.015 135.937Z" fill="#263238"/>
<path id="Vector_199" d="M186.834 112.717C188.326 111.242 190.274 110.317 192.36 110.095C194.445 109.872 196.545 110.364 198.314 111.49C194.447 111.303 190.574 111.717 186.834 112.717V112.717Z" fill="#263238"/>
<path id="Vector_200" d="M174.276 114.451C171.671 114.952 169.214 116.037 167.087 117.623C167.212 116.858 167.532 116.138 168.018 115.534C168.503 114.93 169.137 114.462 169.857 114.176C170.556 113.843 171.329 113.694 172.102 113.742C172.875 113.79 173.623 114.034 174.276 114.451V114.451Z" fill="#263238"/>
<path id="Vector_201" d="M239.415 120.076C239.034 122.191 238.59 124.094 238.294 126.082C237.998 128.07 237.787 130.015 237.491 132.151C236.652 130.16 236.387 127.973 236.727 125.838C237.067 123.704 237.998 121.708 239.415 120.076V120.076Z" fill="#263238"/>
<path id="Vector_202" d="M107.022 622.331C119.516 627.908 132.846 631.38 146.473 632.608C147.258 632.667 148.04 632.473 148.706 632.054C149.372 631.636 149.886 631.015 150.173 630.282L151.759 626.285C151.966 625.771 152.054 625.216 152.017 624.662C151.98 624.109 151.818 623.571 151.543 623.089C151.269 622.607 150.889 622.193 150.432 621.879C149.975 621.564 149.453 621.357 148.905 621.273C135.826 618.892 122.984 615.354 110.531 610.699C110.019 610.504 109.469 610.425 108.922 610.47C108.375 610.514 107.846 610.68 107.371 610.956C106.897 611.232 106.49 611.61 106.181 612.063C105.872 612.517 105.668 613.033 105.584 613.575L104.844 618.313C104.701 619.13 104.838 619.971 105.234 620.701C105.629 621.43 106.259 622.004 107.022 622.331V622.331Z" fill="#73B3DE"/>
<path id="Vector_203" d="M214.446 555.716C224.21 546.13 232.325 534.998 238.464 522.768C238.791 522.068 238.889 521.282 238.745 520.523C238.601 519.764 238.221 519.07 237.66 518.538L234.404 515.535C234.009 515.162 233.536 514.882 233.019 514.715C232.503 514.548 231.955 514.498 231.416 514.569C230.878 514.64 230.362 514.829 229.906 515.125C229.45 515.42 229.065 515.813 228.78 516.276C221.794 527.587 213.813 538.252 204.932 548.145C204.561 548.549 204.285 549.031 204.125 549.556C203.966 550.08 203.926 550.634 204.009 551.176C204.092 551.719 204.296 552.235 204.606 552.688C204.916 553.14 205.324 553.518 205.799 553.791L210.027 556.202C210.717 556.611 211.521 556.784 212.318 556.697C213.115 556.609 213.862 556.265 214.446 555.716V555.716Z" fill="#3776A1"/>
<path id="Vector_204" d="M241.445 572.253H221.338C221.338 572.253 223.157 570.921 231.402 557.45L241.445 562.694L245.102 535.731L269.268 536.641V641.786L241.445 572.253Z" fill="#4CBFD4"/>
<path id="Vector_205" d="M103.808 641.406L101.081 626.983L118.439 632.608L113.069 642.78L141.061 646.968V680H34.8213L103.808 641.406Z" fill="#64D0E3"/>
<path id="Vector_206" d="M179.773 272.338L181.084 265.444C181.213 264.721 181.613 264.073 182.202 263.634C182.791 263.194 183.525 262.994 184.255 263.076L187.236 263.372C187.656 263.416 188.061 263.55 188.424 263.765C188.787 263.981 189.098 264.273 189.338 264.621C189.577 264.968 189.738 265.364 189.809 265.78C189.881 266.196 189.861 266.623 189.752 267.03L182.5 295.009C182.392 295.441 182.186 295.844 181.899 296.185C181.613 296.527 181.252 296.798 180.844 296.98C180.437 297.161 179.993 297.247 179.548 297.232C179.102 297.217 178.666 297.1 178.272 296.891L176.475 295.981C175.895 295.68 175.431 295.195 175.155 294.602C174.88 294.009 174.809 293.341 174.952 292.703L179.773 272.338Z" fill="#1B262C"/>
<path id="Vector_207" d="M188.652 279.127C188.652 280.528 188.237 281.898 187.458 283.063C186.68 284.228 185.574 285.136 184.28 285.672C182.986 286.208 181.562 286.348 180.188 286.075C178.814 285.802 177.552 285.127 176.561 284.136C175.571 283.145 174.896 281.883 174.623 280.509C174.35 279.135 174.49 277.71 175.026 276.416C175.562 275.121 176.47 274.015 177.635 273.236C178.799 272.458 180.169 272.042 181.569 272.042C183.448 272.042 185.249 272.789 186.578 274.117C187.906 275.446 188.652 277.248 188.652 279.127V279.127Z" fill="white"/>
<path id="Vector_208" d="M228.801 251.191C229.584 242.859 230.916 234.632 232.543 226.448C234.171 218.264 235.926 210.101 238.336 202.086C237.575 210.418 236.222 218.645 234.615 226.85C233.009 235.055 231.211 243.155 228.801 251.191Z" fill="#263238"/>
</g>
</g>
</svg>
