<svg width="500" height="500" viewBox="0 0 500 500" fill="none" xmlns="http://www.w3.org/2000/svg">
<path d="M500 382.4H0V382.7H500V382.4Z" fill="#EBEBEB"/>
<path d="M449.9 398.5H416.8V398.8H449.9V398.5Z" fill="#EBEBEB"/>
<path d="M331.2 401.2H322.5V401.5H331.2V401.2Z" fill="#EBEBEB"/>
<path d="M415.8 389.2H396.6V389.5H415.8V389.2Z" fill="#EBEBEB"/>
<path d="M95.7 390.9H52.5V391.2H95.7V390.9Z" fill="#EBEBEB"/>
<path d="M110.9 390.9H104.6V391.2H110.9V390.9Z" fill="#EBEBEB"/>
<path d="M225.2 395.1H131.5V395.4H225.2V395.1Z" fill="#EBEBEB"/>
<path d="M237 337.8H43.9C40.8 337.8 38.2 335.2 38.2 332.1V60.7C38.2 57.6 40.8 55 43.9 55H237C240.1 55 242.7 57.6 242.7 60.7V332.1C242.7 335.2 240.2 337.8 237 337.8ZM43.9 55.2C40.9 55.2 38.4 57.6 38.4 60.7V332.1C38.4 335.1 40.8 337.6 43.9 337.6H237C240 337.6 242.5 335.2 242.5 332.1V60.7C242.5 57.7 240.1 55.2 237 55.2H43.9Z" fill="#EBEBEB"/>
<path d="M453.3 337.8H260.2C257.1 337.8 254.5 335.2 254.5 332.1V60.7C254.5 57.6 257.1 55 260.2 55H453.3C456.4 55 459 57.6 459 60.7V332.1C459 335.2 456.5 337.8 453.3 337.8ZM260.2 55.2C257.2 55.2 254.7 57.6 254.7 60.7V332.1C254.7 335.1 257.1 337.6 260.2 337.6H453.3C456.3 337.6 458.8 335.2 458.8 332.1V60.7C458.8 57.7 456.4 55.2 453.3 55.2H260.2Z" fill="#EBEBEB"/>
<path d="M393.1 76.2H101.3V212.7H393.1V76.2Z" fill="#E6E6E6"/>
<path d="M397.4 76.2H103.3V212.7H397.4V76.2Z" fill="#F0F0F0"/>
<path d="M393.1 212.7H101.3V219.7H393.1V212.7Z" fill="#E6E6E6"/>
<path d="M404.8 212.7H110.7V219.7H404.8V212.7Z" fill="#F0F0F0"/>
<path d="M391.326 206.518V82.3184L109.526 82.3184V206.518L391.326 206.518Z" fill="#485B5D"/>
<path d="M139.7 206.5L156.9 82.2999H183.6L166.5 206.5H139.7Z" fill="white"/>
<path d="M112.3 200.4C112.1 200.4 111.9 200.2 111.9 200V86.2999C111.9 86.0999 112.1 85.8999 112.3 85.8999C112.5 85.8999 112.7 86.0999 112.7 86.2999V200C112.8 200.2 112.6 200.4 112.3 200.4Z" fill="#F0F0F0"/>
<path d="M172.2 206.5L189.3 82.2999H199.8L182.6 206.5H172.2Z" fill="white"/>
<path d="M391.345 206.499V82.2992H390.545V206.499H391.345Z" fill="#E6E6E6"/>
<path opacity="0.6" d="M398.9 91.6H107.1L106.6 84.7H398.4L398.9 91.6Z" fill="#EBEBEB"/>
<path opacity="0.6" d="M398.9 102.9H107.1L106.6 96H398.4L398.9 102.9Z" fill="#EBEBEB"/>
<path opacity="0.6" d="M398.9 114.2H107.1L106.6 107.3H398.4L398.9 114.2Z" fill="#EBEBEB"/>
<path opacity="0.6" d="M398.9 125.5H107.1L106.6 118.6H398.4L398.9 125.5Z" fill="#EBEBEB"/>
<path opacity="0.6" d="M398.9 136.8H107.1L106.6 129.9H398.4L398.9 136.8Z" fill="#EBEBEB"/>
<path opacity="0.6" d="M398.9 148.1H107.1L106.6 141.2H398.4L398.9 148.1Z" fill="#EBEBEB"/>
<path d="M439 247H394.5V382.4H439V247Z" fill="#E6E6E6"/>
<path d="M427.1 382.4H439V363.7H414.6L427.1 382.4Z" fill="#485B5D"/>
<path d="M317.6 247H273.1V382.4H317.6V247Z" fill="#E6E6E6"/>
<path d="M439 247H307.2V376H439V247Z" fill="#485B5D"/>
<path d="M319.1 382.4H307.2V363.7H331.6L319.1 382.4Z" fill="#485B5D"/>
<path d="M429.7 295.1H316.4V327.4H429.7V295.1Z" fill="#F0F0F0"/>
<path d="M429.7 334.2H316.4V366.5H429.7V334.2Z" fill="#F0F0F0"/>
<path d="M407.3 298.5H338.9C336.3 298.5 334.2 296.4 334.2 293.8V292.2H412V293.8C412 296.4 409.9 298.5 407.3 298.5Z" fill="#485B5D"/>
<path d="M429.7 255.9H316.4V288.2H429.7V255.9Z" fill="#F0F0F0"/>
<path d="M407.3 259.3H338.9C336.3 259.3 334.2 257.2 334.2 254.6V253H412V254.6C412 257.2 409.9 259.3 407.3 259.3Z" fill="#485B5D"/>
<path d="M407.3 337.7H338.9C336.3 337.7 334.2 335.6 334.2 333V331.4H412V333C412 335.6 409.9 337.7 407.3 337.7Z" fill="#485B5D"/>
<path d="M53.4 275.9C55.9 268.8 75.4 278.5 83.4 290.3C88.7 298.2 91.9 306.6 93.4 317.8C93.2 304.9 93 291.1 92.8 278.1C91.2 274.8 87.5 267.4 84.9 261.4C76.1 241.6 55.2 234.2 48 221.7C38.5 205.3 38.6 180.7 46.6 171.8C53.6 164.1 76.8 216.2 79.4 222.1C88.4 242.1 91 257 92.7 271.4C92.5 259.2 92.3 247.9 92.2 239.2C91.7 210.9 91.1 201.8 90.8 199C89.8 197.6 88.7 196 88 195.2C82.4 188 69.9 179.4 63.7 168.9C54.6 153.6 56.1 135.2 62.5 128.4C69.2 121.3 81 138.1 87.2 154.9C93.5 171.6 90.8 187.7 92.5 201.6C92.9 204.3 93.2 214.7 93.6 229.1C95.5 213.6 99.3 203.3 106.3 193.6C114.9 181.7 122.4 167.3 129.5 169.1C136.6 171 132.8 190.1 127.2 203.5C122.2 215.5 97.5 227.4 93.9 237C94.3 256.5 94.7 281.1 95 304.1C96.9 292.2 95.6 291.2 103.6 273.1C108.3 262.3 127.8 249 130.1 256.4C132.4 263.7 128.9 277.8 121.6 287.7C115.7 295.6 102.6 295.6 99.5 300.5C98.8 301.6 96.4 306 95.1 308.6C95.4 336.6 95.6 361.4 95.4 369.8L94.1 369.9C94.2 367.7 94 353.5 93.8 334.6C90.6 324.6 69.1 318.7 62.5 308.2C55.4 297.2 50.4 284.4 53.4 275.9Z" fill="#485B5D"/>
<path d="M73.6 382.4H114.8C117.1 382.4 119 380.8 119.4 378.6L122.3 364.2H66L68.9 378.6C69.4 380.8 71.3 382.4 73.6 382.4Z" fill="#485B5D"/>
<path d="M64.9 369.8H123.6C125 369.8 126.2 368.7 126.3 367.3L127.5 356.6C127.7 355 126.4 353.5 124.8 353.5H63.7C62.1 353.5 60.8 354.9 61 356.6L62.2 367.3C62.3 368.7 63.5 369.8 64.9 369.8Z" fill="#485B5D"/>
<path d="M177.8 317.6H142.6V382.4H177.8V317.6Z" fill="#E0E0E0"/>
<path d="M267.6 382.4H149.7L137.3 294.5H255.2L267.6 382.4Z" fill="#E6E6E6"/>
<path d="M284.8 382.4H154.4L142 294.5H272.4L284.8 382.4Z" fill="#F0F0F0"/>
<path d="M167.1 368.7L156.7 308.2H259.6L270.1 368.7H167.1Z" fill="white"/>
<path d="M211.4 368.7L176.4 308.2H187.4L222.3 368.7H211.4Z" fill="#485B5D"/>
<path d="M227 368.7L192 308.2H210.7L245.7 368.7H227Z" fill="#485B5D"/>
<path d="M250 427.5C357.088 427.5 443.9 422.441 443.9 416.2C443.9 409.959 357.088 404.9 250 404.9C142.912 404.9 56.1 409.959 56.1 416.2C56.1 422.441 142.912 427.5 250 427.5Z" fill="#485B5D"/>
<path d="M77.3001 221.5C77.1001 221.5 76.9001 221.3 76.9001 221.1L74.7001 194.4C74.7001 194.2 74.9001 194 75.1001 193.9C75.3001 193.9 75.5001 194.1 75.6001 194.3L77.8001 221C77.7001 221.3 77.5001 221.5 77.3001 221.5Z" fill="#E70202"/>
<path d="M78.6 237.4C78.4 237.4 78.2 237.2 78.2 237L77.5 228.9C77.5 228.7 77.7 228.5 77.9 228.4C78.1 228.4 78.3 228.6 78.4 228.8L79.1 236.9C79 237.2 78.9 237.4 78.6 237.4Z" fill="#E70202"/>
<path d="M303.6 313.4H97.1C91.8 313.4 87.2 309.1 86.7 303.8L75.1 164C74.7 158.7 78.6 154.4 83.9 154.4H290.4C295.7 154.4 300.3 158.7 300.8 164L312.4 303.8C312.8 309.1 308.8 313.4 303.6 313.4Z" fill="white"/>
<path d="M303.6 313.8H97.1C91.6 313.8 86.8 309.3 86.3 303.9L74.7 164.1C74.5 161.4 75.3 158.9 77.1 157C78.8 155.1 81.3 154.1 83.9 154.1H290.4C295.9 154.1 300.7 158.6 301.2 164L312.8 303.8C313 306.5 312.2 309 310.4 310.9C308.6 312.7 306.2 313.8 303.6 313.8ZM83.9 154.8C81.5 154.8 79.3 155.7 77.7 157.5C76.1 159.2 75.3 161.5 75.5 164L87.1 303.8C87.5 308.9 92 313 97.1 313H303.6C306 313 308.2 312.1 309.8 310.3C311.4 308.6 312.2 306.3 312 303.8L300.4 164C300 158.9 295.5 154.8 290.4 154.8H83.9Z" fill="#E70202"/>
<path d="M290.3 154.4H83.9C78.6 154.4 74.7 158.7 75.1 164H300.7C300.3 158.8 295.6 154.4 290.3 154.4Z" fill="#E70202"/>
<path d="M88.7 159.2C88.8 160.3 87.9 161.3 86.8 161.3C85.7 161.3 84.7 160.4 84.6 159.2C84.5 158.1 85.4 157.1 86.5 157.1C87.6 157.2 88.6 158.1 88.7 159.2Z" fill="white"/>
<path d="M97.1 159.2C97.2 160.3 96.3 161.3 95.2 161.3C94.1 161.3 93.1 160.4 93 159.2C92.9 158.1 93.8 157.1 94.9 157.1C96 157.1 97 158.1 97.1 159.2Z" fill="white"/>
<path d="M105.5 159.2C105.6 160.3 104.7 161.3 103.6 161.3C102.5 161.3 101.5 160.4 101.4 159.2C101.3 158.1 102.2 157.1 103.3 157.1C104.4 157.1 105.4 158.1 105.5 159.2Z" fill="white"/>
<path d="M285.6 295.1H112C107.8 295.1 104.1 291.7 103.8 287.5L95.6 190C95.3 185.8 98.4 182.4 102.6 182.4H276.3C280.5 182.4 284.2 185.8 284.5 190L292.6 287.5C293 291.6 289.8 295.1 285.6 295.1Z" fill="#F0F0F0"/>
<path opacity="0.1" d="M231.9 199.4L178.1 264.2C170.7 273.1 175.4 286.6 186.7 289.1L274 308C286.1 310.6 296.1 298.7 291.5 287.2L258 203.5C253.7 192.7 239.4 190.4 231.9 199.4Z" fill="#485B5D"/>
<path opacity="0.1" d="M112.2 208.5L93.4001 259C90.9001 265.7 96.3001 272.8 103.5 272.1L158.2 266.7C165.9 265.9 169.7 257 164.9 251L128.9 205.9C124.2 199.9 114.8 201.4 112.2 208.5Z" fill="#263238"/>
<path d="M250.5 183.1L200.2 256.1C193.3 266 199.4 279.7 211.4 281.3L303.9 293.6C316.7 295.3 326.3 282 320.5 270.4L278.3 185.1C272.8 174 257.5 172.9 250.5 183.1Z" fill="#E70202"/>
<path d="M213.6 274.8C210.2 274.4 207.3 272.2 205.8 269.1C204.3 266 204.4 262.6 206.3 259.9L256.7 186.7C258.5 184 261.6 182.7 265 183.2C268.4 183.6 271.3 185.8 272.8 188.9L315.1 274.5C316.6 277.6 316.5 281 314.6 283.7C312.8 286.4 309.7 287.7 306.3 287.2L213.6 274.8Z" fill="white"/>
<path d="M260.6 209.1L266.5 209.9C270.3 210.4 273.2 213.8 273 217.6L272.6 225.3C272.6 225.6 272.6 225.9 272.5 226.1L268.3 249.3C267.7 252.6 264.6 254.8 261.2 254.3C257.7 253.8 254.9 250.9 254.7 247.4L253 223.5C253 223.2 253 222.9 253 222.7L253.4 215C253.6 211.2 256.9 208.6 260.6 209.1ZM260.2 260.6L261.8 260.8C265.2 261.3 267.8 264.3 267.6 267.7C267.4 271.1 264.5 273.4 261.2 272.9L259.6 272.7C256.2 272.2 253.6 269.2 253.8 265.8C253.9 262.5 256.8 260.2 260.2 260.6Z" fill="#E70202"/>
<path d="M131.5 194.3L117.7 246.7C115.9 253.6 121.9 260.1 129 258.7L182.6 248.2C190.1 246.7 193.1 237.5 187.8 232L148 190C142.7 184.5 133.4 186.9 131.5 194.3Z" fill="#E70202"/>
<path d="M128.9 254.4C127 254.8 124.9 254.1 123.5 252.6C122.1 251.1 121.5 249 122 247.1L135.8 194.6C136.3 192.7 137.8 191.3 139.7 191C141.6 190.6 143.7 191.3 145.1 192.8L185 234.8C186.4 236.3 187 238.4 186.5 240.3C186 242.2 184.5 243.6 182.6 243.9L128.9 254.4Z" fill="white"/>
<path d="M142.3 206.9L145.7 206.2C147.9 205.8 150.2 207.2 150.8 209.5L152.1 214.1C152.1 214.3 152.2 214.4 152.2 214.6L154.3 229C154.6 231.1 153.3 232.9 151.3 233.3C149.3 233.7 147.2 232.5 146.4 230.5L140.9 216.8C140.8 216.6 140.8 216.5 140.7 216.3L139.4 211.7C138.8 209.5 140.1 207.4 142.3 206.9ZM151.9 237.2L152.8 237C154.8 236.6 156.8 237.9 157.3 239.9C157.8 241.9 156.7 243.8 154.7 244.2L153.8 244.4C151.8 244.8 149.8 243.5 149.3 241.5C148.8 239.5 150 237.6 151.9 237.2Z" fill="#E70202"/>
<path d="M388.4 206L380.6 208.5L386.8 215.9C386.8 215.9 389.7 213.4 391.3 210.6C392 209.4 391.6 207.9 390.4 207.3L388.4 206Z" fill="#7F3E3B"/>
<path d="M377 214.6L381.7 220.3L386.8 215.9L380.6 208.6L377 214.6Z" fill="#7F3E3B"/>
<path d="M390.9 145.7C392.8 150.9 394.5 156.1 396.2 161.4C397.8 166.7 399.4 172 400.7 177.5L401.2 179.6L401.4 180.7L401.5 181.3V181.4V181.6L401.6 182C401.9 184.3 401.6 186 401.3 187.7C400.6 191 399.6 193.7 398.4 196.4C396 201.7 393.2 206.5 389.8 211.2L384.6 208.3C386.4 203.3 388.3 198.2 389.6 193.2C390.3 190.7 390.8 188.3 391 186.1C391.1 185 391 184.1 390.9 183.6L390.5 182L389.9 180.2C388.3 175.2 386.5 170 384.8 164.9C383 159.8 381.3 154.6 379.6 149.5L390.9 145.7Z" fill="#7F3E3B"/>
<path d="M347.7 114.7C347.8 115.3 347.6 115.9 347.2 116C346.8 116.1 346.4 115.7 346.2 115.1C346.1 114.5 346.3 113.9 346.7 113.8C347.1 113.7 347.5 114.1 347.7 114.7Z" fill="#263238"/>
<path d="M347.6 115.9C347.6 115.9 347 119.9 345.8 122C347.1 122.8 348.9 121.8 348.9 121.8L347.6 115.9Z" fill="#630F0F"/>
<path d="M346 111C345.9 111 345.8 110.9 345.7 110.8C345.6 110.6 345.6 110.4 345.8 110.3C345.9 110.3 347.3 109.3 349.2 110C349.4 110.1 349.5 110.3 349.4 110.5C349.3 110.7 349.1 110.8 348.9 110.7C347.4 110.1 346.2 110.9 346.2 110.9C346.2 110.9 346.1 111 346 111Z" fill="#263238"/>
<path d="M369.1 116.7C369.8 124 368.8 131 370.4 137.3C370.4 137.3 368.6 143.2 357.9 143.2C346.1 143.2 352.5 137.3 352.5 137.3C359 135.8 359 131 358.1 126.5L369.1 116.7Z" fill="#7F3E3B"/>
<path d="M372.7 139.3C373.6 137.4 374.2 134.8 372.3 134.2C370.2 133.5 359 133.2 355 134.6C350.9 136 351.9 139.7 351.9 139.7L372.7 139.3Z" fill="#263238"/>
<path d="M396.8 402.7C397.6 402.5 398.4 402.2 398.9 401.9C399 401.9 399 401.8 399 401.7C399 401.6 398.9 401.5 398.9 401.5C398.5 401.4 395.4 400.4 394.6 401.1C394.5 401.2 394.3 401.4 394.4 401.7C394.5 402.2 394.7 402.5 395.1 402.7C395.5 402.9 396.2 402.8 396.8 402.7ZM398.3 401.7C396.9 402.3 395.8 402.5 395.3 402.3C395.1 402.2 394.9 402 394.9 401.6C394.9 401.4 394.9 401.4 395 401.3C395.3 401 397 401.4 398.3 401.7Z" fill="#40ABE8"/>
<path d="M398.9 401.9C398.9 401.9 399 401.9 399 401.8C399.1 401.7 399.1 401.7 399 401.6C399 401.5 398.2 399.1 397 398.6C396.7 398.5 396.4 398.4 396.1 398.5C395.6 398.7 395.6 399 395.6 399.2C395.6 400.2 397.8 401.6 398.7 401.9C398.8 401.9 398.8 401.9 398.9 401.9ZM396.4 398.9C396.6 398.9 396.7 398.9 396.9 399C397.6 399.4 398.2 400.7 398.5 401.4C397.5 400.9 396.1 399.8 396.1 399.2C396 399.1 396 399 396.4 398.9Z" fill="#40ABE8"/>
<path d="M342.2 408.8C343 408.8 343.9 408.6 344.5 408.5C344.6 408.5 344.6 408.4 344.7 408.3C344.7 408.2 344.7 408.1 344.6 408.1C344.3 407.9 341.5 406.2 340.6 406.7C340.5 406.8 340.3 406.9 340.2 407.3C340.2 407.8 340.3 408.1 340.6 408.4C340.9 408.7 341.5 408.8 342.2 408.8ZM343.8 408.2C342.3 408.5 341.2 408.4 340.7 408C340.5 407.8 340.4 407.6 340.4 407.3C340.4 407.1 340.5 407.1 340.5 407.1C341.1 406.8 342.7 407.5 343.8 408.2Z" fill="#40ABE8"/>
<path d="M344.4 408.5H344.5C344.6 408.5 344.6 408.4 344.6 408.3C344.6 408.2 344.4 405.7 343.4 404.9C343.1 404.7 342.8 404.6 342.5 404.6C342 404.7 341.9 405 341.9 405.1C341.7 406.1 343.4 408 344.4 408.5ZM342.6 405C342.8 405 342.9 405.1 343.1 405.2C343.7 405.7 344 407.2 344.1 407.9C343.2 407.2 342.1 405.8 342.2 405.2C342.3 405.2 342.3 405 342.6 405Z" fill="#40ABE8"/>
<path d="M353.7 408.2H345.8L345.7 389.9H353.6L353.7 408.2Z" fill="#7F3E3B"/>
<path d="M408.7 401.4L401.1 402.8L395.6 384.8L403.2 383.4L408.7 401.4Z" fill="#7F3E3B"/>
<path d="M399.6 400.8L408.2 398.8C408.5 398.7 408.8 398.9 409 399.2L411.9 405.7C412.2 406.4 411.8 407.2 411 407.3C408 408 406.5 408.1 402.7 409C400.4 409.6 395.6 410.9 392.4 411.7C389.2 412.4 388.1 409.3 389.4 408.7C395.1 406 396.9 403.7 398.5 401.5C398.7 401.2 399.2 400.9 399.6 400.8Z" fill="#263238"/>
<path d="M345.9 407.3H354.5C354.8 407.3 355.1 407.5 355.2 407.8L356.5 414.8C356.6 415.5 356.1 416.2 355.3 416.2C352.2 416.1 347.7 416 343.8 416C339.2 416 337.6 416.2 332.2 416.2C329 416.2 328.2 412.9 329.6 412.6C335.8 411.2 338.5 411.1 344 407.8C344.5 407.5 345.2 407.3 345.9 407.3Z" fill="#263238"/>
<path d="M388 139.4C395.4 144.6 397.6 157.9 397.6 157.9L380.9 166.4C380.9 166.4 376.7 158.2 374.8 149.8C373 141.9 382.8 135.7 388 139.4Z" fill="#40ABE8"/>
<path opacity="0.2" d="M379.6 147.9L386.2 163.7L380.9 166.4C380.9 166.4 378.6 161.9 376.6 156.1L379.6 147.9Z" fill="black"/>
<path d="M338.9 174C339 182.8 339.5 193.8 340.8 207.4H383C383.5 201.2 380.9 172 387.2 142.7C387.7 140.5 386.2 138.4 384 138.1C381.3 137.7 377.6 137.2 374 137C368.6 136.7 360.8 136.6 356.1 137C353.5 137.2 351 137.6 348.9 138.1C345.3 138.8 342.4 141.5 341.5 145C340.6 148.4 339.7 153.6 339.2 161.5C339 165.1 338.9 169.2 338.9 174Z" fill="#40ABE8"/>
<path opacity="0.2" d="M352.2 157.5C349.4 159.5 344.1 160.5 339.2 160.9C339.3 159.6 339.4 158.4 339.5 157.2C340.8 156.5 342.1 155.9 343.3 155.3L352.2 157.5Z" fill="black"/>
<g opacity="0.2">
<path d="M345.7 389.9V400.1H353.6V389.9H345.7Z" fill="black"/>
<path d="M403.2 383.4L395.6 384.8L398.4 394.1L406 392.7L403.2 383.4Z" fill="black"/>
</g>
<path d="M368 108.2C369.2 116 370.2 120.4 367.2 125.3C362.7 132.7 352.6 131.5 349.2 124.3C346.1 117.8 344.7 106.2 351.5 101.3C358.2 96.5 366.8 100.4 368 108.2Z" fill="#7F3E3B"/>
<path d="M351.8 113.9C348.9 112.6 349.2 108 350 106.1C346.6 107.3 341.7 107.9 340.8 104.5C339.9 101.1 342.9 99.9 341.1 97C339.3 94.1 345.1 90.8 347.8 94.9C350.5 99 357.2 97.2 361.6 93.2C364.8 90.3 369.4 94 367.5 97.8C367.5 97.8 377 97.2 375.1 103.6C373.2 110 370.5 110.3 371.2 114.9C371.6 118 372 124.3 368.3 125.2C363.9 126.3 352.6 122.3 351.8 113.9Z" fill="#263238"/>
<path opacity="0.2" d="M351.8 122.3C350.9 122.9 350 123.6 349.1 124.3V124.4C350 126.4 351.5 127.9 353.2 128.9C353.8 128.4 354.1 126.5 355.1 126.5C358.3 126.6 364.4 125.3 365.4 121.7L351.8 122.3Z" fill="black"/>
<path d="M354.2 113.8C354.4 115.8 354.1 117.7 353.4 118.9C352.5 120.7 351.1 119.6 350.5 117.3C350 115.3 349.9 111.9 351.2 110.9C352.6 109.9 354 111.5 354.2 113.8Z" fill="#7F3E3B"/>
<path d="M355.8 207.4C355.8 207.4 362.4 267.7 366.5 290.3C370.9 315 393.9 392.7 393.9 392.7L408 389.7C408 389.7 392.2 317 390.1 292.5C387.8 265.9 383.1 207.3 383.1 207.3H355.8V207.4Z" fill="#0F4C75"/>
<path opacity="0.3" d="M355.8 207.4C355.8 207.4 362.4 267.7 366.5 290.3C370.9 315 393.9 392.7 393.9 392.7L408 389.7C408 389.7 392.2 317 390.1 292.5C387.9 267.2 387.9 267.3 383.1 207.3H355.8V207.4Z" fill="#0F4C75"/>
<path d="M390.6 388C390.5 388 393 393.2 393 393.2L408.9 389.8L407.8 385L390.6 388Z" fill="#263238"/>
<path opacity="0.2" d="M360.6 228.9C370.9 230.9 368.3 269.6 366.3 289.4C363.9 275.4 360.5 248.3 358.3 229.2C359 228.8 359.7 228.7 360.6 228.9Z" fill="black"/>
<path d="M340.8 207.4C340.8 207.4 337.4 266.4 337.4 290.5C337.3 315.5 342.9 397.5 342.9 397.5H356.3C356.3 397.5 359.9 317 361.4 292.4C363.1 265.6 368.6 207.4 368.6 207.4H340.8Z" fill="#0F4C75"/>
<path d="M340.5 392.2C340.4 392.2 341 397.8 341 397.8H357.3L357.9 392.8L340.5 392.2Z" fill="#263238"/>
<path d="M357.5 151.7C355.9 151.9 354.5 151.9 353.1 152C351.7 152 350.2 152.1 348.8 152.1C345.9 152.1 343 151.9 340.1 151.6C337.2 151.3 334.3 150.8 331.4 150.1C328.5 149.4 325.5 148.4 322.6 147L322.3 146.8C319.7 145.5 318.6 142.4 319.9 139.8C320 139.5 320.2 139.2 320.4 139C321.8 137.2 323.1 135.9 324.4 134.7C325.7 133.5 327.1 132.4 328.5 131.4C331.2 129.3 334 127.5 336.8 125.8C339.6 124.1 342.4 122.4 345.3 120.8C348.2 119.3 351.1 117.7 354.1 116.3C355.6 115.6 357.4 116.3 358.1 117.7C358.7 119 358.3 120.5 357.2 121.3C354.7 123.2 352.1 125.1 349.6 127.1C347.1 129 344.6 131 342.1 133C339.6 135 337.2 137 335 139C333.9 140 332.8 141.1 331.8 142.1C330.8 143.1 329.9 144.2 329.4 145L327.2 137C329.2 137.8 331.5 138.4 333.9 138.8C336.3 139.2 338.8 139.5 341.3 139.7C343.8 139.9 346.4 139.9 349 139.9C350.3 139.9 351.6 139.9 352.9 139.9C354.2 139.9 355.5 139.8 356.6 139.7H356.7C360 139.5 362.8 142 363 145.3C363.1 148.7 360.7 151.4 357.5 151.7Z" fill="#7F3E3B"/>
<path d="M363.1 114.7L358.1 115.8C358.1 115.8 351.4 115 349.9 120L353.9 123.4L360 124.4C361 124.6 362 124.4 362.8 123.9L364.4 123.1C365.1 122.7 365.6 122 365.7 121.2L366.1 117.2C366.1 115.7 364.7 114.4 363.1 114.7Z" fill="#7F3E3B"/>
<path d="M353.4 157.6C345 159.9 335.4 157 335.4 157L338.9 138.2C338.9 138.2 347.3 137.5 352.5 137.4C365.9 137 368.5 153.4 353.4 157.6Z" fill="#40ABE8"/>
</svg>
